<mxfile host="app.diagrams.net" modified="2024-01-16T15:44:37.410Z" agent="Mozilla/5.0 (Windows NT 10.0; Win64; x64) AppleWebKit/537.36 (KHTML, like Gecko) Chrome/120.0.0.0 Safari/537.36" etag="InR6YKVVlcW5T0qrjynh" version="22.1.19" type="google">
  <diagram name="페이지-1" id="rInuaE_LNWb452cp8V9j">
    <mxGraphModel grid="1" page="1" gridSize="10" guides="1" tooltips="1" connect="1" arrows="1" fold="1" pageScale="1" pageWidth="827" pageHeight="1169" math="0" shadow="0">
      <root>
        <mxCell id="0" />
        <mxCell id="1" parent="0" />
        <mxCell id="rPotdWslKDCbEyl9UmMc-77" value="" style="group" connectable="0" vertex="1" parent="1">
          <mxGeometry x="10" y="306.55" width="804.14" height="573.45" as="geometry" />
        </mxCell>
        <mxCell id="DNiDl7zgtREd2JpVn6Px-5" value="User Upload 화면" style="rounded=0;whiteSpace=wrap;html=1;" vertex="1" parent="rPotdWslKDCbEyl9UmMc-77">
          <mxGeometry width="392.29520259319287" height="573.45" as="geometry" />
        </mxCell>
        <mxCell id="DNiDl7zgtREd2JpVn6Px-3" value="&lt;b&gt;&lt;font style=&quot;font-size: 14px;&quot;&gt;1 (첫 화면)&lt;/font&gt;&lt;/b&gt;" style="text;html=1;strokeColor=default;fillColor=none;align=center;verticalAlign=middle;whiteSpace=wrap;rounded=0;" vertex="1" parent="rPotdWslKDCbEyl9UmMc-77">
          <mxGeometry width="91.23144246353321" height="39.09886363636363" as="geometry" />
        </mxCell>
        <mxCell id="DNiDl7zgtREd2JpVn6Px-6" value="&lt;font style=&quot;font-size: 16px;&quot;&gt;&lt;u&gt;&lt;b&gt;인기&lt;/b&gt;&lt;/u&gt; &lt;/font&gt;&lt;font style=&quot;font-size: 12px;&quot;&gt;vs&lt;/font&gt;&lt;font style=&quot;font-size: 16px;&quot;&gt; &lt;u&gt;&lt;b&gt;비인기&lt;/b&gt;&lt;/u&gt;&lt;b&gt;&lt;u&gt; 1,2&lt;/u&gt;&lt;/b&gt; &lt;/font&gt;&lt;font style=&quot;font-size: 12px;&quot;&gt;vs&lt;/font&gt;&lt;font style=&quot;font-size: 16px;&quot;&gt; &lt;b&gt;&lt;u&gt;User&lt;/u&gt;&lt;/b&gt;&lt;/font&gt;" style="rounded=0;whiteSpace=wrap;html=1;" vertex="1" parent="rPotdWslKDCbEyl9UmMc-77">
          <mxGeometry x="411.84479740680706" width="392.29520259319287" height="573.45" as="geometry" />
        </mxCell>
        <mxCell id="rPotdWslKDCbEyl9UmMc-76" value="" style="shape=image;verticalLabelPosition=bottom;labelBackgroundColor=default;verticalAlign=top;aspect=fixed;imageAspect=0;image=data:image/png,iVBORw0KGgoAAAANSUhEUgAAAu4AAARgCAYAAAC2d9NYAAAAAXNSR0IArs4c6QAAIABJREFUeF7snQu4VVXVv6emJlqK4i0xM9Lgq+8LJVMUvFZiZV4oRQVMRVO5mQheQJCLXBQURTApyQug4IXSNKCMVCC1DMVSIf3IVCwVFFPBNOP//Gbf3P95FmvvtdY+e++zLu96Hh85Z8815xjvmHuf3xxrzLk327hx40bDBQEIQAACEIAABCAAAQikmsBmCPdUxwfjIAABCEAAAhCAAAQgYAkg3JkIEIAABCAAAQhAAAIQyAABhHsGgoSJEIAABCAAAQhAAAIQQLgzByAAAQhAAAIQgAAEIJABAgj3DAQJEyEAAQhAAAIQgAAEIIBwZw5AAAIQgAAEIAABCEAgAwQQ7hkIEiZCAAIQgAAEIAABCEAA4c4cgAAEIAABCEAAAhCAQAYIINwzECRMhAAEIAABCEAAAhCAAMKdOQABCEAAAhCAAAQgAIEMEEC4ZyBImAgBCEAAAhCAAAQgAAGEO3MAAhCAAAQgAAEIQAACGSCAcM9AkDARAhCAAAQgAAEIQAACCHfmAAQgAAEIQAACEIAABDJAAOGegSBhIgQgAAEIQAACEIAABBDuzAEIQAACEIAABCAAAQhkgADCPQNBwkQIQAACEIAABCAAAQgg3JkDEIAABCAAAQhAAAIQyAABhHsGgoSJEIAABCAAAQhAAAIQQLgzByAAAQhAAAIQgAAEIJABAgj3DAQJEyEAAQhAAAIQgAAEIIBwZw5AAAIQgAAEIAABCEAgAwQQ7hkIEiZCAAIQgAAEIAABCEAA4c4cgAAEIAABCEAAAhCAQAYIINwzECRMhAAEIAABCEAAAhCAAMKdOQABCEAAAhCAAAQgAIEMEEC4ZyBImAgBCEAAAhCAAAQgAAGEO3MAAhCAAAQgAAEIQAACGSCAcM9AkDARAhCAAAQgAAEIQAACCHfmAAQgAAEIQAACEIAABDJAAOGegSBhIgQgAAEIQAACEIAABBDuzAEIQCBzBMaMGWNGjBhh7Z41a5bp2bNn5nzAYAhAAAIQgEBSAgj3pMRoDwEItDgBhHuLhwADIAABCECgBQgg3FsAOkNCoCUJ/O1vfzOnnXaaefDBB60ZV199tbngggvMZpttltisf/7zn+aiiy4yU6ZMCe3LF9jnnHOOmTx5smnVqlXicYI3INzDEc6bN8985zvfafLivffea4499thmM6eDZARWrlxpevToYZYvX25vXLJkienSpUuyTmgNAQhAIEAA4c6UgEDBCGzcuNGMHTvWDB8+3Hp+wgknmBkzZpgddtghMYlnnnnGnHjiiea5554zn/rUp8zPfvYzc8ABB5T6QbgnRlr1De+9957p37+/ueWWW5r0MXDgQHPVVVeZj3/841X3zY3JCSDckzPjDghAIJoAwj2aES0gkDsCv/vd78zxxx9vlH3/5Cc/aebPn19VNlCC/6yzzrJ8evfubaZNm2b7cxfCvXFTx19E+aN27NjRzJ0717Rv375xxjCSQbgzCSAAgXoQQLjXgyp9QiDlBN5++20ruO+++25rqbLvl19+ufnYxz4W2/J33nnH9OvXz8ycOdPec9NNN5k+ffrEvr85DSmV2ZSeypAGDRpkX1Dm/a233jKzZ89ueGyaE1fuhQAEIACBygQQ7swQCBSUgJ8t/9rXvmZuu+02W+4S9/rDH/5gvv3tb9usfaOzugj3plGSSNei6ac//WnpCcqKFSsqPg2JG2faQQACEIBAeggg3NMTCyyBQEMJBEsrkmxiVJ28MrwXXnihtbmWddRr164199xzjxWhS5cuNcrsq8xjv/32M8cdd5z55je/aa677rrEx0Fu2LDBLF682Nxxxx3m0UcftaUMutTvIYccYk4++WRz4IEHms033zxWHP7973+bZ5991pahaKPvY489Zu+TrQcddJA59dRTzaGHHtqQ2nJx+sY3vmFZuT0L69atM6eccop5/PHHQ/cfxHLSa6SYazFw++23mwceeMA8+eSTdpGgDZff/e53Lb9tt922Yrf/+te/zP/+7//ajZrLli2zeyO0efPNN9+09+244452Edi5c2fzrW99y8Zjiy22SGpqTdprvoid5qHmjfzV9ZnPfMbaKL+POOIIO39qYWOjx6sJJDqBAAQaTgDh3nDkDAiBdBAIngiTRHyvWbPG1rQvWLDAOlNO9KtUo1evXrbN6NGjSxtiwwhI1N11111m1KhRJVEd1k7CSSU9q1atsi9HneMuwfmb3/zGXHLJJeb3v/99Rfhnnnmm3bi72267VWz38ssvm8suu8w+pah0SdzpxJ1OnTrVLegfffSRZaanELquueYae0pQ1Ik/5QySgNT906dPL/H96le/ahdKc+bMsYuDsOuoo44yU6dONfvss09ZX4N131FQjjnmGOtPsM+gz0nmbpCLFondu3cvmaL5ooXdD37wg8j5opu0UNPeDjHyLy1A9f0CCxcurPhEqlbjRbHkdQhAIB8EEO75iCNeQKAqAv7xgcpuKhv92c9+NrKvX//61zazKxFXqcwmrnCXaFcGX+KznDAsZ1Ql4a5+b731VitE4/arrL5E66677ho6pMSnylKU5Y5zaaEhGw477LA4zRO3efXVV61AfOihh8x//dd/2cXPF7/4RdvPfffdZ59S6IpbDhUU7qeffrrNNrtjDSsZqBOGxK7cCUVJhbvG0oLg5ptvNrvvvnuTof0N1kG/K9noP2kKY/Lwww+b733ve+avf/1r7FiEzcG4wr1W48U2loYQgECmCSDcMx0+jIdA8wj4ok89xdlgGsx2VtrYGle4K5P7/e9/vySulWkdMmSI+cpXvlI69/3dd9+1pSkq1dCGWFdeUUm460mAngw40a7Skb59+5ovf/nLtl9lO9WPsqLXXnttKcM6dOhQm8UOlkCollzn0Usc61JphzL5Es7K0qvMRht/VQqi+12GX4siiU8JzFpf/uJLIltZb1ey4sdXZS0q+whmhoP2BIW7e12xUBa6W7du1m9d6l/cJk2aVOommMH2+5dwv/TSS0vlSeIhkb/VVlvZZh988IF5/fXX7QJywoQJpRiPGzfOfl+Av3k6ePxlnO8jCJZ4Be/R2GeffbZd8Ohy81BPTD7xiU/Y32kevvjii+YXv/iFfdrzxz/+MfSpTxzhXsvxaj2v6A8CEEgnAYR7OuOCVRBoCIGgCA8KvzAjlIlU/fZvf/vbyNrpOMJ99erVVlyrnEWXhLXOHa9ULx1nc6rfr0SrxN+5555bth5Z9dZnnHGGrWsul8H1N/RGZdI1vk7d0eJBl/YDqAynluepB8s+gouYYHz15EGC2AnlsPgGhbtEusqCtLAKi0mwfZwxoia3BLbEu+KlRdfRRx9tF2s77bRTk1v9RUucJwr+l4+FxfhXv/qVzfDrUo29FrKVyqbEXyJ/yy23tMer+lcc4V7L8aKY8joEIJAPAgj3fMQRLyBQNQF/Y6NqiXVE5Je+9KWy/fliKerLm+IId18MxxFLMiyOcPf7jSuafd9uvPFGm113l39yi373ox/9yJ7aUukbZ6st54gbTL/so1ypkx/fOOVQQSGuJwUqHankp1+So4y84t6mTZu4boS2e+ONN+wCURt/y51aFPwW4ErZfg3ixzesLt6fr839pt84wr2W4zULNjdDAAKZIYBwz0yoMBQC9SEQFKRuc2PYaMEMb1DcBu+JEu7Bcoc4pTpxhLt/xnycxYiz+4UXXrCno+ioS2X+VUqx9dZb25f94y/jCGDdE/QvaiNt0gj7i5Nyme5gfKNsCNucqlKgStfTTz9tT5Z5/vnnbRmSSp/23nvvpO40ae8LX72g8iNt9vWvYOlLpSdGfizCvuVX/frzNWpRGuVcUuHe3PGi7OF1CEAgHwQQ7vmII15AoFkE/C/vqSQg/M2FcTYERgl3v+wmicCOyrj7/SqLrzKLchsmfXC+2Arep2MfJep1KdOuIym32WabSO4+W9V3y/YkX3RVboDgl2j98pe/NF//+tc3aZ5E3OrmaoS7Py/inunv9hdo34LqxFUv/9RTT5kPP/zQbgx1x3U6h8KEu17znzqUE+Rq98gjj9j4KUtfTuD7T0h0z2mnnWbLhD73uc/FPibU2RtHuNdyvMiJSAMIQCAXBBDuuQgjTkCgeQR88aN68Pnz52+S3dQIfoY3TilBlHD3s9iqUdbG05133jnSmSjh7vcb2VmZBsGSj/HjxxttWtUVdbSl36Uv+OMwi2uvL/qi6rv9jHjUAqnewl1Pbe6//3678NH56HGvcsI9+BRIc2PYsGFNSnuijoB0Nsh3bYLVBl//0pGP2tSrjL/Obd9rr71Km6bL2R9HuNdyvLgcaQcBCGSbAMI92/HDegjUhECwpCPspBi//ESDRtUTq02UcFf9ddeuXa0PSWqjo4S732+1gIL2+GMmEe6+LUmy/5XsVrZaG10VJ11hYtW/P8kJLPUU7tqwq5IedypPktiUE+7qI+p40qgjIH074tqoE2e0+VhfwhS24TiOcNe4tRovCUvaQgAC2SWAcM9u7LAcAjUlEHVCh5/FPvjgg212XCerVLoQ7sae9+4WJ7US7sFNmUknQqVyqHoJ93/84x9mwIABTb60SvNH34QrPvq36uJ1BKdKkNavX1/6AiP5V0m4B+v4/UVl1BGQYeyUodcpRzqTXouCSt8BoL0QWji5IzJdf3GFu9rXYrykc4D2EIBANgkg3LMZN6yGQM0J/OUvfzE651zHIerya6aD4qfS2e2+YWkQ7jpqUt9sqRKg5lx+qczll19u9F+lk1bcWPUolfGPEazGp0pnutdLuPsnz2h8ndM/aNCgssd+xtmc6vvul3H5NexRR0BG8dPZ8sqKq/5e36iqU270hVT+FXbOfBLh7vdV7XhRfvA6BCCQDwII93zEES8g0GwCOvNbglwCVZd/XJ6f0Yz7RT7qI0q4r1ixwpx00kl2c2KS00iiSmX8zZKHH364tSP4zZtJgfm+tOTm1GC9dlI/XPtyi696CPdKc6uc/UmFu7/w9DepRh0BmZSfFrEaS5tWdda8rrAnUNUK96A9ccdL6gftIQCBbBJAuGczblgNgboQ8GuF/SMP/d8nObYuSrj7Z3XLIX39+6GHHhrpW5Rw909cSbLQqDRwNcdBBvcF3HrrrfakkuZcvkCN2mgaHMfPepcrd6qHcK+mz6TCPewbfXV+v77t9ZZbbrFfFqZjKuPMrzjx8ReHmmN6QtW5c+fSrbUS7q7DqPHi2EwbCEAg+wQQ7tmPIR5AoGYE1qxZY7/FdMGCBbZPnfmtI/RGjRpl63h1xflqeWdQlHBXWcAll1xidGSirjglOMpAyh7952wMnjMeLO2RWL7++uvNdtttVzWrYB31tddea59KVCqX8Y8gjHN8ZhzjypWExLlXRy6K1UMPPWSbh20wrkZkRx0HWU2fSYW7/PFP2tHCs3///vaUmEpHQMbhFtYmyr5aC/eo8ar1g/sgAIFsEUC4ZyteWAuBuhIIO/NbZ4/rGEOJvaQZ3ijhLmceeOABW1uv7LQ2KCorfdhhh4X6qdNR9I2lV1xxhXnzzTfLCne94ItJ/awFgo5zjKp1/9e//mU3Jup88fPPP7+JHb5ojrJVZ5Hr1BH5pyvut7dWCnC1X1jl+gxmpcOOp6xGZEcJ9+Bi6+yzz7aLtW233TbUXT2J0QLxhhtuKG0MrbQ51XUS5KMsu0R7uUVKcHAdUamSKp0Y06pVq4rvNdW59+jRw37pVLWlMrUcr64fDHQOAQikhgDCPTWhwBAIpIOAXxIioX788cebiRMnWuMqfTNlmPVxhLsy2RKQ7ohAnZl98cUX23H1pUn//ve/zd///nf7dfUS7aqH969y3wQqsaga5HPPPbck/v7nf/7HinEd9bjbbrvZE0zUTiee6FtTdX69+pMQDTvyMWirThLRgkBZbPW3+eabG7WRWJ80aZJZvny5NVXZ35tvvtko696cy49N3C86Co7nlz2FPQWoh3CXDf64+lnHQmphowWQ4qAFkxY7Oq1ICyT927/iCPewcfS7qHPu3TiuBEs29erVy3zjG98wHTp0sPNQsdVcVOZ74cKFTeKrBaGeAMkPd8XJuNdyvObMK+6FAASyQwDhnp1YYSkEGkIgmLWMI5LLGRZHuOve5557zpxxxhmlE20qOSrBqpIX9+U95YS7+pAYvPHGG22mvdKRfmHjlTurXaK+T58+9pjHOFdUZj5OH2oTfBribx6O24faBcuhxEcLJ3fVS7iX+7KhcrbrfHQt2DQ3dMUV7sGSJt0bt7zL3zsRl+lxxx1nj43cddddm9ySRLjHHUvtyo2XpA/aQgAC2SWAcM9u7LAcAnUj4JeEuEH8zapxB44r3NXfY489ZmvGf//734d2rxIXZfxVBy+xOWLECNuuknB3glelL8qMl+s7OKC+JXPw4MHm6KOPDrXl5ZdftqeK3HbbbRVR6Js2p0yZYjp16hQXWdl2QcEd5wuwwjoLLgCCm43rJdxli8qbFD+VwJS79BRDiybZdeaZZ9rsdhLhrrb+/E2yt0B7O3S0Y9xvdNUZ7iNHjgz9tt84wr2W4zV7gtEBBCCQCQII90yECSMh0FgCwTPdNbpKGyZMmGC22mqr2MYkEe7qVCUrKpm5++67bUZbWXJ9xby+uOjUU0+1ZQvaDBp1qkyYgcq+qy5ZJ6uob5WxuDp5jaFMvkpodHyksqdRZ7SrbEJ18DqnXWd7a+GhS6U+Bx10kLVXJ5iEfatmbIBeQ7/UJO4XYJUbx9/E6R+dqPb1FO7qX9x0etAPf/hDWz6jGOiphBaGEuv6QiY9UWnOZkxfuCd9MiH7tDCTqNa+Ds0ZPWXRpUXFV77yFXPkkUfaY0xld7l5Eke4Ox61GK+aOcU9EIBA9ggg3LMXMyyGAAQgAIEyBPxSmVofAQl0CEAAAi1NAOHe0hFgfAhAAAIQqBkB/8lE0s3UNTOCjiAAAQjUiQDCvU5g6RYCEIAABBpLIPitstXuA2is1YwGAQhAID4BhHt8VrSEAAQgAIEUE3jmmWfMiSeeaE+iiXsEZIrdwTQIQAACmxBAuDMpIAABCEAg8wSCXy4V9wjIzDuOAxCAQKEIINwLFW6chQAEIJBPAv5JSEmOgMwnDbyCAATySgDhntfI4hcEIACBAhFozhGQBcKEqxCAQMYJINwzHkDMhwAEIAABCEAAAhAoBgGEezHijJcQgAAEIAABCEAAAhkngHDPeAAxHwIQgAAEIAABCECgGAQQ7sWIM15CAAIQgAAEIAABCGScAMI94wHEfAhAAAIQgAAEIACBYhBAuBcjzngJAQhAAAIQgAAEIJBxAgj3jAcQ8yEAAQhAAAIQgAAEikEA4V6MOOMlBCAAAQhAAAIQgEDGCSDcMx5AzIcABCAAAQhAAAIQKAYBhHsx4oyXEIAABCAAAQhAAAIZJ4Bwz3gAMR8CEIAABCAAAQhAoBgEEO7FiHPNvVy5cqUZOXKkmTp1qmnTpo3tf8yYMWbp0qVm9uzZTX6n14YPH15zG+iwPIENGzaYCy64wPTu3dt06dKlSUPFSLHy49QSLP05tGbNmtJ88v/t5laYfWvXrjX9+/e39+25555l/W0J32o1pmI1c+ZMM3nyZNOqVatY3Ya9NyvdmLR9LCNiNPLj1759+xh3/KdJHHvLza1K8ym2ASEN3ftt+vTpZvTo0U0+7/Q+W7Vqlf1dNfEMDuf31xyb3b36LGjXrp3p2bNn4u7ixCJxp94Nlbg2p99y94rFiBEjNnl51qxZlk/Y6+41n6ffx5IlSzb5DK6H7fRZHAII9+LEuqaeBv/o6gP28ssvN8uXL7cffBKLlcRjTY2hs0QE0iLcfaOrEVoI9/CwJxVTSdsnmmwVGlcr3OOM32if5MuwYcPM2LFjS0kLZyfCPU7EwttU4lp9r+XvlDDXVS7RFHxd82zgwIFmypQpRotPvb569erSQluv9+jRw0ybNg3xXo+AFbRPhHtBA18Lt/1MjT6gZsyYYfbee2/z2muv2Q++4Ieun60IZil8e/SHrlevXvZXfruw+93ioFOnTuaGG26wCwfdowyXFhDdunWzmeVtttnGZmSD7VyWSWK2a9euJTNclkS/VwZNPnXu3Nl+IC9btqzU9pxzztkkGxq2YJHtRx55pP3w9sdy92tgP0Puixq9pj8OujbbbLMmmfJgBs8JlkmTJtk/Ii7j7v6AiI/88Z+MhNmj7K6f7dLYfubIj0Uww6i2vliRL+KsOeH8Vxb5vPPOMxMmTLD2DBgwwCxcuNDGa9SoUebaa681BxxwgBk0aJDp2LGjmTt3rv3D6C7fNr1+6623mh/+8Idl4+v77+ZEMPvq2G2//fZGmdOgz+U4icU777xjfvnLX9r552KqGPiZTJ9JOXuC8+2kk04yd955p9luu+3MxIkTS/NZtgfj48Z96aWXNnka5ri5WDjWssk94SjH238/+rGQ388884yNjd5z3bt3t3PYsfPfG8Fx9Vmh+9U22KfLVrr3vhNHbv67+aGnfe597cbUPUcffbSdb8H55J4O+uyD7z+/n7AMdFjcZJcbLzhX/Tmjea7PAM39sHiqn6jPyGB/LovvPrt85urrE5/4hOWg/8Lep25MN08rveeD3DR2nz59SpxdTN1njv8ZpjmW9HPUnzP+e3zdunV2zunzSJ/n/pzzP7eDnGVvv379Sn8jwuKbVLj7n/XOlkMOOaTJ04uoPmvxt5g+ikUA4V6seNfUW/0RWbRoUekRsP4toaEPcP1xlcB1j/nnzZtnFi9ebEWuhEW5LIQvRNevX18qhXjiiSdsX05ouPvdh6Uc80W1LyT0QepExYsvvljqw2VKnDB2WRON4WyVD/qwd8LRz7C48oy2bdtukqEJCleXjdMfsKDtun/w4MEVhXs5XsGspRvX769Dhw72D4n+oLrHvU64yx7HIeiPnz3yOegeF1ex05MW/QH3hbVbyGkeKN5qc8opp5jjjjvO8te1//77h5bHOEZDhgwp2etnsXwRGiyV8eeBi9tOO+3UZOEQzIq5/pwwCRvXn7Nuzrm4+yVifnzVr8/JLcxcPNxCphxn8XRCzX9Ur351ry8I/MWR/A2Wseme4ILSzRW9ZzW/wvxW3P2yKn/MIMdy9jheTtC5cfv27Vt6f8tX/33n85Y//vz3s+kLFiwolaH4iYJypVfi4OaMy5BKtOpy5SzlsryOsf8+cvPS/6wKlv0EM+4S2b7odPOonP/BUrewBaAyumHz8p577rGfXcH3gP+HwE/A+DHU3PPfQ2Hc/PewW0SVE+7VfI6GPVXzP28rfUYFObvP/hUrVpQtFYwS2WEZd/+95ha55RZJNf0DTGeFJYBwL2zom++4/wdU2W5lk/THwwk5iW1dTjT7mQj/j0W5PyKVfu8+QJ1AdX0HH5G7cZLY4C8egsLF/+OqrHS5mlVfuKoPf4Hj1yy7spVK2argwsLn4sSYvzjRH05fLAWFXFD4uEWK78+4cePM0KFDSxl7f5y99torsu46mG2TkHr66aeNxNqVV15phb4u90cvKLT8x8/lGIf9UXfzIDi+Lz7LlVEEH3sH50FY3DQfNPedmPbFsbj7i0Pna1A4+PYEXwuWNZWzPThumHCvxu9gXb0vGiuJnDj2VIqfeLr3rsShPx/KCXf/fVGu9Ep8w/YMxKkbD/Lz54ti7Qtb35agcPfnYnChHeczslLpjT9f/Hkpe8r56Di7JxVuQenH0F+E+nPCZxIl3IN+h33uBPdyVJojwYVo8DMquOB0TxUqlVH5TzxcDMs9EXKvB2vY/ScFaoOIb77WoIemBBDuzIiqCbi69lNPPdX8/Oc/t6JMj/D14ScRL7HqxLz/ONMNGPxA8z94/ceYYb8PyywrMxUl3P3NmsFMk7+hyD1y9p8a6A+WXzbg/AgrvXBsJFBV6uDKZILCv1xpS7BUJkyIufH9zKlr5/8RdSJI7RSfoPBxZUm+P9dff70tX3F/xH0hpdiUK2cKLrbk9+9+9ztzxBFH2DmizOk111xja4HLZUWDm1OTCPdy2T6/DEo2hpXfBOeOP67/xEjzILhoDZYaBBdPyvb5GxTL2eM/zQhbGAYFqXiqPMcXEeUy7uX2NlTyW/0G37vufRtcfPulFL49wfnnXgsTZa5Uxf+M0BMBf/6Hvcfde9eJqHLCXRl6XzAG52uwH//1ID/f/iTC3V84BD/HwvwP1lv7Arzc54nKgiTcy5VqBf1WO7/EyH9dT3t0hXFLItyDfod97rjPqEpzxH+P+yV4/mdUMLngz9Uo4a5+4ta4l/ub5eyPer3qP77cWGgCCPdCh7/5zuuD9r333jMvvPCCLY9xYkO1r6oLl5gPZmIqjRo3Ex/MuPu13P4f+XIZ90rZmUqZ1jiZOV9Qv/7661bkuU1rQRFaLuPuZ/PUXyXh7v4QnXzyyTarrT86lTKecTKWlbJZYYuqcqfX+PPgtttuM9tuu21pD0Q5cVUP4R7nZJZKAja4gAtmNsOEuxaSbr4ohv4eh3L2lJsfTtAE54vL0MbJcFfKuPvzq9KCJZhxD/qdxJ64m4vDMt1h74dyi11/PpXLuPufSeU2zdYq415JuIe9j4Kfl9Vm3Ms9IfEz7uWeGlR6shiWLHBJFPekJLggjfs5WmmORGXcfc71Eu6KjV/6FbZBOa6vzf9rTA9FIYBwL0qk6+SnPtCVnf32t79d2pCjP3Aq/dhnn33M2WefbUf2M0OqB/Vrrn3TwtpJiCpjWanGPa5w11iuzt7/o+Ieq7pFhmsXFGzBcopgna/vi8tAfuc73yllcNzvgjWpruTHr3fVZkTVp0YJd39Dmcs4Vto0JZvDatyDpyJoc6Wr4fVr3FUC5bLH/pOFYG2vfFXZlGrn3Z4Hl8kPPh2pdBxkczPuwfpezTE3l/wNqpWEe1SNeznh7uK92267lTYVBzfr+vYEhaWrcXdxLVci5rcrl3EPG1dZVLdJ2G3eLCczhVFJAAAgAElEQVTc3ftWsXM19uWEu29PsKbfvcfVh+a9hF+wxt3/jPDrqINPjPyscpwad39Ph5vv7j3rfKl3jXuYcBeLJJ+R7v1X7vPExce9z+VjMDvt/C5X4+737Zd9+dz8pyHuszPsMywo3ON+jkYt7irVuDdCuAcz6sHFUXBfRJ3+DNNtwQgg3AsW8Fq7GxQD6r/c40G/frBS3Z/fLu6pMnGFu/6oBB+HB08okcicM2eOPaM+LEPnRIl8LXdCic8hmEXz7/dPgfBLDVROohITiZoo4e4WRr4YDWajgn0HnwK40g3fn3InTAR/X+6EoOA8qJQ5dcJC//dPDZFQKyfcXf+PPfZY6VSZsFIZCQ3f/7AyGY1bSbi7J0nlTu8oJ9ydjcENzOXsCcu4+6dj+PPFn0d6P+mSHUGhG7aYVHmNi3WlJxxOQLsTWiTy58+fbxe/wVNzytkjwej7GzzpSfFzm7/DPiPizBvZp8stcNznUrn5FIyj76ffT/DzMswPzdFyWXrd77j4p8q4Wu5gNjbOZ6TfX9SpMv5pR+Xep75wr/TeDvvcctzcZ5DbnK355X+GBYW7z6XS52iUcC/3GRV8HyXJuIed4+6XhwVfD/4tC9bJB/+GVXtmfq3/dtNfdgkg3LMbOyxPQCAoZBPcWnXTSrWUVXfKjRCAAARiEChXdhjjVppAAAIpJoBwT3FwMK12BBot3IMlDrXzhJ4gAAEIRBNAuEczogUEskgA4Z7FqGEzBCAAAQhAAAIQgEDhCCDcCxdyHIYABCAAAQhAAAIQyCIBhHsWo4bNEIAABCAAAQhAAAKFI4BwL1zIcRgCEIAABCAAAQhAIIsEEO5ZjBo2QwACEIAABCAAAQgUjgDCvXAhx2EIQAACEIAABCAAgSwSQLhnMWrYDAEIQAACEIAABCBQOAII98KFHIchAAEIQAACEIAABLJIAOGexahhMwQgAAEIQAACEIBA4Qgg3AsXchyGAAQgAAEIQAACEMgiAYR7FqOGzRCAAAQgAAEIQAAChSOAcC9cyHEYAhCAAAQgAAEIQCCLBBDuWYwaNkOgAQRuueUWs3DhQjNnzpzSaBs3biz9e7PNNuP3xhg4/GcawKF2HDZs2GAGDhxoDj74YHPGGWfU5d1+xBFHmIceeqgufdMpBNJK4PDDDze/+c1v0mpeLLsQ7rEw0QgCxSOwevVq06ZNG7P11lsXz3k8hkALEvjoo4/MrFmz7MJ5zz33NBMmTKi5NVpo+Qvxmg9Ah5kgULR5kAd/Ee6ZeGthJAQaQ+CJJ54w7dq1MzvuuGNjBmQUCECgLIEPPvjA3H///aZ79+41p5QHAVNzKAXssGjzIA/+ItwL+EbFZQiUI3D22Web4447zhxzzDFAggAEckwgDwImx+FpmGtFmwd58Bfh3rC3BwNBIP0ETjjhBHPHHXdQHpP+UGEhBJpFIA8CplkAuNkSKNo8yIO/CHfevBCAQInASSedZO68806IQAACKSKgOveXXnqpphblQcDUFEhBOyvaPMiDvwj3gr5ZcRsCEIAABLJBoB5iox59tgTNc8891/Tu3dt06dLFDr906VLTtWtXs2TJkia/GzNmjBk1apS59tprzdSpU+3Ge/+aPXu2Wbx4sZk8ebKZNGmS3evTs2dP29/MmTPt71u1atUSLtZ1zLzMg7iQ8uAvwj1utGkHAQhAAAIQaAEC9RAb9eizBdAYCXInsjW+BPjPf/5z88UvftEMHz7cmqTfrVq1qvRzmJ0I95aIXuPHzMO8R7g3ft4wIgRSS0BlMiqX4YIABNJD4OWXXzaf/vSna2pQHgSMy7C7jLh+vvzyy22mXd8/4TLrEvdHHnmk2WmnnczIkSNLv3fZ+Y4dO5qjjjrK/OMf/zAHHnigOfPMMy1rHcm511572Yz7dtttZyZOnGi6detmFwLBjH1Ng9PAzvIyD+Iiy4O/CPe40aYdBApAIA8fagUIEy5CoNkE8vJeX7t2rRk2bJgZO3asZaJ/X3bZZWbKlCmmT58+Vqz379/fCnZdTrivWbPG9OjRw0ybNs106tTJXHDBBfb1sFIZV3rj2rVt27Zi9r7ZwWlgB3mZB3GR5cFfhHvcaNMOAgUgkIcPtVqE6fHHHzdXXnmlmTFjhtlhhx1q0WVh+sgDu7vuusvWNo8fPz60rjkPPublva5vmZXoVp27rkWLFllRray4rv3339++j1Xfrg2+TrivWLGiSe26X8serHFXxt5l2eOU3WTpzZ6XeRCXeR78RbjHjTbtIFAAAspAzZ07N9JTCZuLL764STtloW6++Waz9957R96f9gZRwuytt96y2bynnnqqiSvaKHfRRRel3b2K9pXzTceEqowg6opiF3W/e71W/fjjvfDCC2bIkCG25CE4T/3xHnzwwVQJd06VqTxrnEhXK5W2qFRGQlwiXiUyTsyvXLmyJNwXLFhQ2oyqTaeVhLu/ORXhHvcdnM52CPd0xgWrIACBOhMIy0hK+Jxyyik2U33iiSfW2YL6dh8lGp241eLFiVll/i699FKb1ctqpt75pTj6MRSPhx9+ONaiJIpd3MjVqp/geFdddZX57Gc/u8kc1e91xVl41cu2cmzqITbq0Wfc2Na6nQS59ue88847dkHdvn17oxKaG264wey66652o6rEvC/ck2TcEe61jljL9ZeHeU/GveXmDyNDILMEypUSBDOart2+++5rRo8ebfR/1Z+ef/75ZvXq1SX/g9ncsIx+pYyvRNeNN95Y6u/YY48tlTk4MarfSVBr3ODTASe677vvvlIfsrWcAA8T7u5GXwC6dmeddZa56aabbIbeLWx8H4P2OG6f/OQnS4/8o7L5wUy5376SHXEz0n67IC+fd5io9eMT5BrsK+4c8TPzWmi4K+rJT5h94nPhhReaoUOH2kx8cH7HmR9u4ers8OdrJV5xPgTqITbq0WccX+rRxtW5awOpSmKUQRdzlbzo6tu3r91M6gt3/V7HPaqsJqrGHeFej6i1TJ95mPcI95aZO4wKgVQSiHuqTDnh7gSKslvK2DpxWikLrzYSOU4kSwANHjy4VHZTSSSHQQxmjd3PKjdwNcsSkq+++mrZn6MyqpVs8u+VfcoA6vIXAcH+gz87bk78lcuEO/+D3IM/u/uDdgT5hbEKtnF977777jY7Hfw56Esl1upbTylcX/r5F7/4hfn85z9vM6bV7DMIjlfOR/9piWwWazc/gvM72GdY/Pw5G5zDwWx+kuy+7OdUmeiPS9Wh63JHQOrf/hGPEvO+cJeQd6fKqO306dONEg8S/vPmzTO9evVqcqqMO8edUpnoWKS5BcI9zdHBNghAIDGBuB9qlTbv+aUIUZv8ZGAwSx8sZUgq3NVnWNY7KNScKFR7P9uqn5sj3OXPuHHjzNVXX235S7iHldS4xY3ahC14gpsjK4m9MHvDFhC+HeUmR1iNu59R9/1zG3d94fv000+XBHcYW//+P//5z2XFeVQMytkf5z6fZZC9+vXn7fvvvx85P4Jz1vWpJwESiMG6+kq19onftFXeEPe9XmX33JYRAkWbB3nwl4x7Rt5cmAmBRhCI+6GWJOMedjpHsLTFlTfo/8rA+qI2jnCXEDrjjDOalN+4UpGw+31xp8xuUFhFib+kGfdaCPdKi6BaCvfgPHMiVL9XRlrC3C9Nce1dCYwvxsU2GBe1d/GulFWPioEbN04ZS9Anf/EQFn+ftUqrKs2Prbfe2s5Zv8zKjafF4X777Ydwb8SHF2NURSDuZ35Vnafwpjz4i3BP4cTCJAi0FIEkp8qECfJyNe7+sXrBsgP/nmqEuxPtqmd1G0WTZNxrLdyjxg7L8KYp4x4293wRXSlLrnujFkV+/5XEeRzhHizTCY5f7ihPn7fu+ctf/tJkU2o1wt1fbPo+hmXXk2bcOVWmpT4R8z9uHoRskijlwV+Ee5KI0xYCELAE4p4qU26Tny9y1EZfluKOkgyreVeGt9zm1KDAc9nwzp07WzEWlXF3GdNgzXal02HinipTLjMfp8bdXxiFLU78qRi3xj2qVCbs9JiomnbZIT9//OMfmwEDBtiMvF+bHlyoqb/rr7/enH322SbIXn25Gnf9u9zRjc73ML4a77HHHos82UfzbP78+barc845p8lRl/681et+HX7Y6UHBmnb3HpHg1mKyuTXu9RAb9eiTj8fsESjaPMiDvwj37L3PsBgCLU4g7jnuYQI/WNaikx3+9Kc/lc7WDjuBQyK6kugMnloiweSEeJRwV1bWr+tW1l916Sp9iDpVJuoc90olNVGnygTPyY86Rz3OqTJRwj2s7ESTLbi5OKydaxN1qoz6CzvxxrH0T53x41pp4eaX7qjvOMK90obd4LyNMz+Cp8r4fnCqTIt/ZGFAGQJ5ELJJgpsHfxHuSSJOWwjknEDcU2UaiSFpWUEjbavXWHE29dZrbPpNHwFOlUlfTPJiUR6EbJJY5MFfhHuSiNMWAjknkMYPtSKK2CL6nPO3Vurc03udCwKtW7c269atKxSIjRs3ZtpfhHumw4fxEKgtgTQI92ApTaUvQqqt9+npDeGenljk1ZI0vNfzyjZLfhVtHuTBX4R7lt5h2AqBOhOIe6pMnc2gewhAwCPAqTJMh3oRyIOQTcImD/4i3JNEnLYQgAAEIACBBhOoh9ioR58NxsJwNSBQtHmQB38R7jWY+HQBAQhAAAIQqBeBeoiNevRZL//pt34EijYP8uAvwr1+7wd6hkDmCMycOdN+K+YWW2yROdsxGAJ5JfDqq6/a401reeVBwNSSR1H7Kto8yIO/CPeivlvxGwIhBAYOHGg6duxozzHnggAE8ksgDwImv9FpnGdFmwd58Bfh3rj3ByNBIPUE5s2bZ7+h9Pbbbzdbbrll6u3FQAjkmcAHH3xgXnnlFdOuXbuau5lVAbN27VqjL20bPny40Tcwu2v27Nlm1apV9vflLn0R1gUXXGB69+7d5N5ge31rsZ4+Tp482bRq1arJy2PGjLHxkA15uLI6D6plnwd/Ee7VRp/7IJBTAj/60Y/MGWecgXDPaXxxK/0EPvroIyMh+uCDD5oDDzzQ9OvXr+ZGZ1XANEe4x4WIcI9LKnvtsjrvfdII9+zNOyyGQMMIPPnkk6ZTp052vIMOOsj89re/tf9+9NFHzcEHH8zv4cB8qMP7YtGiRUZPv4455hhz9NFH1+X9nlUBE1e4S3x37drVsjvnnHNs9lyXn3H324wePdqsXr3atlu2bJnNuG+33XZm4sSJplu3bnYhtWDBAtOrVy/bz6xZs3KRdc/qPKj2TZEHfxHu1Uaf+yAAAQhAAAIZJZBVARNHuK9cudJov86UKVOMzsCXWG/btq0ZPHhwSbh36NChVHKj5ITa6HLCXaJ/yZIlNnHh7lcZDqUyGZ3w/2d2Vuc9GfdszzushwAEIAABCDSLQFYFjBPuCxcu3MR/Zc0lrpUdX7x4calG3ZW+jBs3zgwdOtTWuOvy69j98hhl3CXQ1U+bNm3s/139PMK9WdOuxW/O6rxHuLf41MEACEAAAhCAQMsRyKqAiZNxl9B2JS2OsMpdZsyYYQW5hPuLL74YKu79Uhm3ORXh3nLztNYjZ3XeI9xrPRPoDwIQgAAEIJAhAlkVMHGFe9gJM/6pMlEZdz8bj3DP0MSOMDWr8x7hnp85iCcQgAAEIACBxASyKmDiCHe/xr19+/Y2y66Np36pTFSNO8I98ZTKxA1ZnfcI90xML4yEAAQgAAEI1IdAVgVMHOEuYv6JMe5UmG222Sb0VBl96Vzfvn3taTJRpTKuDIdTZeozL+vda1bnPcK93jOD/iEAAQhAAAIpJpAHAVNLvMrK66r0BU61HC8tfRVtHuTBX46DTMu7BzsgAAEIQAACDSKQBwHTHFQqp+nRo4dZvny57cad9R78ptTmjJGFe4s2D/LgL8I9C+8sbIQABCAAAQjUkEAeBEwNcRS2q6LNgzz4i3Av7NsVxyEQj4AyUVwQgEDjCEyfPr3ug+VBwNQdUgEGKNo8yIO/CPcCvDFxEQLNIeB/XXhz+gneq28jdF9DXst+6QsCjSBQr/mrfhHujYggY4hAHoRskkjmwV+Ee5KI0xYCBSSAcC9g0HE5kgDCPRIRDTJAIA9CNgnmPPiLcE8ScdpCoIAEEO4FDDouRxJAuEciokEGCORByCbBnAd/Ee5JIk5bCBSQAMK9gEHH5UgCeRDukU7SIPcEWrdubdatW5d7P30HN27cmGl/Ee6ZDh/GQ6D+BBDu9WfMCNkjkAfhnnUBk71Zkz6L85CBTkI1D/4i3JNEnLYQKCABhHsBg47LkQQQ7pGIaJABAnkQskkw58FfhHuSiNMWAgUkgHAvYNBxOZIAwj0SEQ0yQCAPQjYJ5jz4i3BPEnHaQqCABBDuBQw6LkcSQLhHIqJBBgjkQcgmwZwHfxHuSSJOWwgUkADCvYBBx+VIAgj3SESxGowZM8aMGDGiSduOHTuauXPnmvbt28fqox6NmmPXypUrzciRI83UqVNNmzZt6mFezfrMg5BNAiMP/iLck0ScthAoIAGEewGDjsuRBBDukYhiNZBA1jV8+PBY7RvVKMyu2bNnm8WLF9svjmvVqlVZUxDujYpS8nEQ7smZcQcEIJAxAgj3jAUMcxtCAOFeG8yVhPvSpUvN6NGjzWuvvWY6d+5sBfO8efNMr1697OAuM7/nnnsaxaNTp07mhhtuMMuXLzezZs0yq1atstn8bt26GYluZb83bNhg27pvp12yZInp0qXLJs6E2RUU5LKva9eupXvVV4cOHUzPnj3NwoULS+OuWbPG9OjRw9rl21Ibgs3rJQ9CNgmBPPhLxj1JxGkLgQISQLgXMOi4HEkA4R6JKFaDKOHer1+/UtmMhLLaOxHu7h08eLAV47ok7pctW2YFtcR79+7d7WuHHHKIFdT+eOrP7983OCrj/tJLL5mBAweaKVOm2JIePxuv11ypjPrUuHqioAWC+l29enVk1j4WvBo0yoOQTYIhD/4i3JNEnLYQKCABhHsBg47LkQQQ7pGIYjUIqyV3WfCgUA92KLGsrLoT7k6cBzPjGqNdu3bm6KOPbiKiXfa9d+/em2Tdw+yqlC2XrTNnzrSC3BfuK1asaLLYSFsZTR6EbKyJ9n+N8uAvwj1JxGkLgQISQLgXMOi4HEkA4R6JKFaDqIy7E8OqKQ+WuWgAldI44e4EeJRwVxmLfykzr6x4uYy7G9ctDFy7oLh3n5VB4e6X0+jeNGy+dT7kQcjGmmgI9ySYaAsBCGSZAMI9y9HD9noRQLjXhmwS4R7cHBrMuMcR7v3797dlLFEn1gTt0mJAderTpk2z2fng04BKGXd/8VEbarXrBeFeO5aN6omMe6NIMw4EMkoA4Z7RwGF2XQkg3GuDt1rhvn79epsll4iOm3EP1rgHxXi5jLv7vb9wUB29q7ffZpttmtTYV6pxVx8S8q5OvzYUq+8F4V49u5a6E+HeUuQZFwIZIYBwz0igMLOhBBDutcGdRLivXbu2yYkt5513npk/f74ZN26cGTp0qInKuEu4B8ttwspk5FmYXW58jeM2vep0GpW+jBo1ysyZM8ee3a7Lld5IoPunyqSpTEZ2ItxrM48b2QvCvZG0GQsCGSSAcM9g0DC57gQQ7nVHzAANIIBwbwDkGg+BcK8xULqDQN4IINzzFlH8qQUBhHstKNJHSxNAuLd0BJKPj3BPzow7IFAoAgj3QoUbZ2MSQLjHBEWzVBNAuKc6PKHGIdyzFzMshkBDCSDcG4qbwTJCAOGekUBhZkUCCPfsTRCEe/ZihsUQaCgBhHtDcTNYRggg3DMSKMxEuHsE8rBQQbjzpoYABCoSQLgzQSCwKYE8CHfiCoHWrVubdevWFQrExo0bM+0vwj3T4cN4CNSfAMK9/owZIXsE8iDcsy5gsjdr0mdxHjLQSajmwV+Ee5KI0xYCBSSAcC9g0HE5kgDCPRIRDTJAIA9CNgnmPPiLcE8ScdpCoIAEEO4FDDouRxJAuEciokEGCORByCbBnAd/Ee5JIk5bCBSQAMK9gEHH5UgCCPdIRDTIAIE8CNkkmPPgL8I9ScRpC4ECEkC4FzDouBxJAOEeiYgGGSCQByGbBHMe/EW4J4k4bSFQQAII9wIGHZcjCSDcIxElbjBmzBgzYsSIJvd17NjRzJ0717Rv3z60vw0bNhjFonfv3mannXYyI0eONFOnTjVt2rQptV+7dq3p2bOnWbhwYZM+3Gdbq1atEtualxvyIGSTxCIP/iLck0ScthAoIAGEewGDjsuRBBDukYgSN5Bw1zV8+PDY9yYR7uq3S5cusfsuQsM8CNkkccqDvwj3JBGnLQQKSADhXsCg43IkAYR7JKLEDSoJ96VLl5qZM2eayZMnG2XIZ8+ebVatWmUGDx4cO+MeJtyd8NdZ5srsL1myxHTo0KFJhn706NF2MbFy5Uqb0T/ggAPMoEGDjJ4GTJs2zchuZfNdOzmutj169DDLly833bp1s/b6TwESw6nTDXkQsknQ5MFfhHuSiNMWAgUkgHAvYNBxOZIAwj0SUeIGLSnc27Zta8W5E/KHHHKIFe8S4AMHDjRTpkyx/kiMDxkyxL4me++55x4r+HW5dirZ0etuoaB2q1evLi06EoOp4w15ELJJ8OTBX4R7kojTFgIFJIBwL2DQcTmSAMI9ElHiBmE17sqAq7ylFhl3v8bdZcG32WYbm7F3Qj1otOrj+/fvbzPtvjhXzb3L+kug++3WrFljRb3LsrtMfbD2PjGgOtyQByGbBEse/EW4J4k4bSFQQAII9wIGHZcjCSDcIxElbtCSGXdtbnX171okdO3atWS/2yCrX/ibXysJd/9+3Re1yTYxrBrdkAchmwRFHvxFuCeJOG0hUEACCPcCBh2XIwkg3CMRJW6QRLi7trWqcXfC3Z1A48pcghn3uMLdr8dPDKKBN+RByCbBlQd/Ee5JIk5bCBSQAMK9gEHH5UgCCPdIRIkbRAn3fv362XpyV0OuDHm9hbuy6hMnTizVsccR7sEad/UhIZ/GDap5ELJJJloe/EW4J4k4bSFQQAII9wIGHZcjCSDcIxElbhB1HKSrgVd9uv579913ay7cZbQEdq9evaz906dPN8uWLQs9J75cqYzq3/1TZdJaJiP/8iBkk0y0PPiLcE8ScdpCoIAEEO4FDDouRxJAuEciokEGCORByCbBnAd/Ee5JIk5bCBSQAMK9gEHH5UgCCPdIRDTIAIE8CNkkmPPgL8I9ScRpC4ECEkC4FzDouBxJAOEeiYgGGSCQByGbBHMe/EW4J4k4bSFQQAII9wIGHZcjCSDcIxHRIAME8iBkk2DOg78I9yQRpy0ECkgA4V7AoONyJAGEeyQiGmSAQB6EbBLMefAX4Z4k4rSFQAEJINwLGHRcjiSAcI9ERIMMEMiDkE2COQ/+ItyTRJy2ECggAYR7AYOOy5EEEO6RiGiQAQJ5ELJJMOfBX4R7kojTFgIFJIBwL2DQcTmSQB6Ee6STNMg9gdatW5t169bl3k/fwY0bN2baX4R7psOH8RCoPwGEe/0ZM0L2CORBuGddwGRv1qTP4jxkoJNQzYO/CPckEactBApIAOFewKDjciQBhHskIhpkgEAehGwSzHnwF+GeJOK0hUABCSDcCxh0XI4kgHCPRESDDBDIg5BNgjkP/iLck0ScthAoIAGEewGDjsuRBBDukYhokAECeRCySTDnwV+Ee5KI0xYCBSSAcG+5oP/1r38148aNM0OHDjWf+cxnSoa4359++unmpz/9qRk2bJjZfvvtmxj6i1/8wjzxxBPmoosuMltvvXXLOZHTkRHuOQ1swdzKg5BNErI8+ItwTxJx2kKggAQQ7i0X9Pfff99cddVVZv/99zff/OY3S4bEEeVx2rScZ9kfGeHesjFcuXKl6dGjh1m+fHnJkG7dupnZs2ebNm3amKVLl5qZM2eayZMnm0mTJpl27dqZnj17JjJ6zJgxVd2XaJAWbpwHIZsEYR78RbgniThtIVBAAgj3lg16UID7Yv6LX/yimTZtWinj/tRTT5mBAwea3XbbzXTu3Nm8++67pYz7jTfeaG6//XbrzCWXXFJaCCh7P2TIEPP3v//dfOELXzBXXnnlJtn7liWQztER7i0bFwl3zfUpU6aY9u3bW2MktHUNHz68iXHVCvBq72tZMslGz4OQTeJxHvxFuCeJOG0hUEACCPeWDXqwXEY/O7Gu85f9f0uAq6ymQ4cONlOvS6UyixYtKpXNvPbaa1aoq91nP/tZc/HFF5tjjz3WCnmJ+9dff53ymhghR7jHgFTHJmHC3c+yL1u2zGbcDzzwQHPmmWdaS2bNmmX22msvM3r0aKP3gRa3ysjPmzfP9OrVy7bp2LGjmTt3rn2/uN/pPmXr1X/Xrl1tO/e52KpVqzp6Wf+u8yBkk1DKg78I9yQRpy0ECkgA4d6yQXcZdonrfffd1ygD/9JLL5lzzz3X+CL+L3/5i7nvvvtKolvZd/18/vnnm+uuu65JuY0E+p577mmCGftyNfUtSyCdoyPcWzYu5TLuriSmXKmMft+vXz8rzpWp18/KrLsSGz9r72fc/fH03lH827Ztu0l2v2WpJB89D0I2idd58BfhniTitIVAAQkg3Fs+6E6sn3LKKTZDLtEuEe8LdwkQfzNqULg/+OCDTRw59dRTbcZRIt6Vx7z99ttm7NixVtj4m2FbnkD6LEC4t2xMwmrc/Sx4JeHuC/WgFxLwq1atsoLcF+76/eLFi22GXll217/eP1m+8iBkk/DPg78I9yQRpy0ECkgA4d7yQZcIl0DQZjyJB3dSTJKMu8vY+9749+tUGjLu8WONcI/Pqh4ty5XKOFG+YsWK0M2pvqCXAN+wYYPNnk+fPr1kpkppwoS7K51xDbUZdsGCBfVwr2F95kHIJoGVB38R7kkiTlsIFJAAwr3lg65MuDLtzz777CYbS12Nu6x02fhKNeO13d8AACAASURBVO7//Oc/S3XtXbp0oca9yvAi3KsEV6PbwoT72rVrTf/+/c3IkSPNmjVrYgn3YCa9UsbdZeJr5EIqusmDkE0CMg/+ItyTRJy2ECggAYR7OoKujLs2mU6cOLFUxhLMmLtTZWSxTtxQLXzfvn3tOe7+qTIqk1G5jS5Olakuvgj36rjV6q5aZdx94b5+/Xq7CVUL2mDGPTieMvurV6+276ssX3kQskn458FfhHuSiNMWAgUkgHAvYNBxOZIAwj0SUV0bhNW4uxNh3KZTd467OzXGnSrjfq9SGWXpJdYXLlxoVPpy3nnnmfnz5zc5bSbsVBn/zPi6OlrnzvMgZJMgyoO/CPckEactBApIAOFewKDjciQBhHskIhpkgEAehGwSzHnwF+GeJOK0hUABCSDcCxh0XI4kgHCPRESDDBDIg5BNgjkP/iLck0ScthAoIAGEewGDjsuRBBDukYhokAECeRCySTDnwV+Ee5KI0xYCBSSAcC9g0HE5kgDCPRIRDTJAIA9CNgnmPPiLcE8ScdpCoIAEEO4FDDouRxJAuEciokEGCORByCbBnAd/Ee5JIk5bCBSQAMK9gEHH5UgCCPdIRDTIAIE8CNkkmPPgL8I9ScRpC4ECEkC4FzDouBxJIA/CPdJJGuSeQOvWrc26dety76fv4MaNGzPtL8I90+HDeAjUnwDCvf6MGSF7BPIg3LMuYLI3a9JncR4y0Emo5sFfhHuSiNMWAgUkgHAvYNBxOZIAwj0SEQ0yQCAPQjYJ5jz4i3BPEnHaQqCABBDuBQw6LkcSQLhHIqJBBgjkQcgmwZwHfxHuSSJOWwgUkADCvYBBx+VIAgj3SEQ0yACBPAjZJJjz4C/CPUnEaQuBAhJAuBcw6LgcSQDhHomIBhkgkAchmwRzHvxFuCeJOG0hUEACCPcCBh2XIwkg3CMR0SADBPIgZJNgzoO/CPckEactBApIAOFewKDjciQBhHskopo1GDNmjBkxYkST/kaPHm2GDx9eszHUkcZp166d6dmzp1m6dKmZOXOmmTx5smnVqlVNx0lTZ3kQskl45sFfhHuSiNMWAgUkgHAvYNBxOZIAwj0SUc0aSFDrckJ9w4YNRvzbtm1bU/HuC/eaGZ/yjvIgZJMgzoO/CPckEactBApIAOFewKDjciQBhHskopo1CAp3dbxy5UozcOBAM2XKFDvOyJEjzdSpU02bNm2aZMuXLVtmlJ1/7bXXTOfOnW0Gfd68eaZXr172vo4dO5q5c+eaJ554ovS7WbNmmb322quUcVc7xXv69On2niVLlpguXbpYGzTu9ttvv8lrNXO+zh3lQcgmQZQHfxHuSSJOWwgUkADCvYBBx+VIAgj3SEQ1axAm3F3WvXfv3mannXaqKNz79etnxXn79u2tqFd/s2fPtiLf77tcqcykSZPM6tWrrejXQsD1Jwd79OhhhgwZYstrdL9rl5XymjwI2SQTLQ/+ItyTRJy2ECggAYR7AYOOy5EEEO6RiGrWoLnC3RfqQaMk4FetWmVLbsKE+7hx48zQoUONFgjKsrsFwyGHHGL233//UtbfLQqyVhefByGbZKLlwV+Ee5KI0xYCBSSAcC9g0HE5kgDCPRJRzRqECfe1a9faLLcEd1TG3RfTTni7shcZ6Ta6hgl39d+nTx87joS7LtdOwr1ciQ4Z95qFv6YdIdxripPOIACBNBJAuKcxKtjU0gQQ7o2LQNIad2XRFy9eXCpt8YW7/5rEdXMz7gj3xs2DWoyEcK8FRfqAAARSTQDhnurwYFwLEUC4Nw581Kky2iSqWvNp06aZTp062Y2kulxNejnhvn79epu1Vya9XKmM+qhU445wb9w8qMVICPdaUKQPCEAg1QQQ7qkOD8a1EAGEe+PAxznHXZlznRSjU2L69u1rN5GGCXdXYrNw4ULTrVs3c95555n58+c3OW0m6akyYafZUCrTuPmRZCSEexJatIUABDJJAOGeybBhdJ0JINzrDJjuG0IgD0I2Cag8+Mvm1CQRpy0ECkgA4V7AoONyJAGEeyQiGmSAQB6EbBLMefAX4Z4k4rSFQAEJINwLGHRcjiSAcI9ERIMMEMiDkE2COQ/+ItyTRJy2ECggAYR7AYOOy5EEEO6RiGiQAQJ5ELJJMOfBX4R7kojTFgIFJIBwL2DQcTmSAMI9EhENMkAgD0I2CeY8+ItwTxJx2kKggAQQ7gUMOi5HEkC4RyKiQQYI5EHIJsGcB38R7kkiTlsIFJAAwr2AQcflSAII90hENMgAgTwI2SSY8+Avwj1JxGkLgQISQLgXMOi4HEkgD8I90kka5J5A69atzbp163Lvp+/gxo0bM+0vwj3T4cN4CNSfAMK9/owZIXsE8iDcsy5gsjdr0mdxHjLQSajmwV+Ee5KI0xYCBSSAcC9g0HE5kgDCPRIRDTJAIA9CNgnmPPiLcE8ScdpCoIAEEO4FDDouRxJAuEciokEGCORByCbBnAd/Ee5JIk5bCBSQAMK9gEHH5UgCCPdIRDTIAIE8CNkkmPPgL8I9ScRpC4ECEkC4FzDouBxJAOEeiYgGGSCQByGbBHMe/EW4J4k4bSFQQAII9wIGHZcjCSDc/4No6dKlpmvXriVes2bNMj179ozk5zdYu3atvWf48OGmS5cuie4NNlZf/fv3NyNHjjTt27ev2NeYMWPMiBEjjPuMa9WqVbPGjnvzypUrrX1Tp041a9asKf27TZs2cbuoWbs8CNkkMPLgL8I9ScRpC4ECEkC4FzDouBxJAOH+H9Her18/M3fuXCuSN2zYYMTlkEMOSSTeW0K4y9bLL7/c9OnTJ1LgR06GhA184d4SYt03Nw9CNgn+PPiLcE8ScdpCoIAEEO4FDDouRxIounAvJ9KDotTPyPuZbXf/9OnTbcb7xRdfLGXc1UePHj3M8uXLTbdu3czs2bONE7j+a2GZcj/jvueee9qFRNu2bW1mXdfo0aPN4MGD7e81tq4lS5aYTp06bfI7Zf813sCBA207ib5Ro0aZa6+91hxwwAFm0KBBpmPHjmbatGlG2fuFCxfa/vXkQFfwaYTG6dChg13UqK18c/0p+y4fw3iprzA/3DiRk7VCgzwI2ST+58FfhHuSiNMWAgUkgHAvYNBxOZJA0YW7E7RTpkwpm7F2IlvC1gljiWgJTgnd1atXm8mTJ5tly5bZchtf2LqyGb/d+vXrm5TB6LV27do1ye6HCXcF043jnhA4Ud+7d29bnhO0x7XTvVpEyAcn5PXzkCFD7Li675577rFPHXRJ5IuJ/289jdDiY/HixdaOl156KbRURmUzbiyfl1tohPkRVQ4UNZHzIGSjfPRfz4O/CPckEactBApIAOFewKDjciQBhPv/r9MuV+6h7PHMmTOtWFX9uH6W0J0xY4b9vxPNLvuun3XpNZdl9zP4K1asaNJfWJDChLsr3Ql7TWM6kRy0R/ftv//+JTEukRxcsMjOVatW2cVIpfp6n0U54R70L8grzA+Ee+RbtUkDhHsyXrSGAAQySADhnsGgYXLdCSDc/1NCUinj7meZJdydCFc5yYABA0qlMUHh7m92VSBVjqKM9hNPPFHKWpfbSFpOnCtbXu41V77ib4512XwJd7eRVAuUYClQJeHuNr+6yeg+S8sJ9wULFjTxz401adKkJgudJBtwo94IeRCyUT6ScU9CiLYQgEDmCSDcMx9CHKgDgaIL93I17hKVw4YNM2PHjjVRGeRyGXc/S++HLpjBj5txd+NUm3GvRrir7MV/clCLjHuYH2Tck72587BQoVQmWcxpDYHCEUC4Fy7kOByDQNGFuxCVO1XG1bFXqnH3s/GVatzVTkJe/5cY9rP8Esa6/E2a1WTco2rcmyvct9lmG7u5VFdzatwR7jHemBFNEO7NZ0gPEIBAygkg3FMeIMxrEQII9/9gD56c4p+qEny90qky2223nTnuuOOabADVqTKuTMZllsudUuMmQbXC3T/lRn1po6zbjFqNcHebX3VyjXzQ6TFz5syxZ7frcmfdJzlVBuHe/Lc6wr35DOkBAhBIOQGEe8oDhHktQgDh3iLYGbTGBPIgZJMgyYO/lMokiThtIVBAAgj3AgYdlyMJINwjEdEgAwTyIGSTYM6Dvwj3JBGnLQQKSADhXsCg43IkAYR7JCIaZIBAHoRsEsx58BfhniTitIVAAQkg3AsYdFyOJIBwj0REgwwQyIOQTYI5D/4i3JNEnLYQKCABhHsBg47LkQQQ7pGIaJABAnkQskkw58FfhHuSiNMWAgUkgHAvYNBxOZIAwj0SEQ0yQCAPQjYJ5jz4i3BPEnHaQqCABCTcuSAAgcYR0BGC9b6OOOII89BDD9V7GPqHQKoIHH744eY3v/lNqmxKagzCPSkx2kMAAhCAAAQgAAEIQKAFCCDcWwA6Q0IAAhCAAAQgAAEIQCApAYR7UmK0hwAEIAABCEAAAhCAQAsQQLi3AHSGhAAEIAABCEAAAhCAQFICCPekxGgPAQhAAAIQgAAEIACBFiCAcG8B6AwJAQhAAAIQgAAEIACBpAQQ7kmJ0R4CEIAABCAAAQhAAAItQADh3gLQGRICEIAABCAAAQhAAAJJCSDckxKjPQQgAAEIQAACEIAABFqAAMK9BaAzJAQgAAEIQAACEIAABJISQLgnJUb7QhIYM2aMWbp0qZk9e7Zp06ZNZhisXbvW9OzZ03Tp0sUMHz48M3ZjKAQgAAEIQAACmxJIjXCXKOratWvZGHXs2NHMnTvXtG/fPnVxlJjr1atXE7s+85nPGNn8rW99yxx//PFml112qdruRoqvDRs2mAsuuMDaOnnyZNOqVauS3c4O/SJrArZq+P93YxLh7ubyJz/5SfPTn/7UfPWrX91k+KefftqcfPLJ5rnnnjOzZs2y4roeVyPnTj3sp08IQAACEIAABP4/AYR7DWZDmHD3u5WIv+aaa8wJJ5xgNttss8QjNlJ8IdzDw1ONcP/Upz5lvv71r5vrr7/ebLfddqWOP/roIzNq1CijPnUh3BO/JbgBAhCAAAQgUEgCqRPu9RQx9YqwE+5LliyxJQm6PvjgA/PSSy+Z22+/3Vx33XXmww8/NDNnzjTHHXdcYjPSItwTG56jG6oR7tdee62ZMWOGmTRpkjnqqKNKNJ555hnzve99z3z3u981l156KcI9R/MEVyAAAQhAAAL1JJA54X7nnXean/zkJ+b3v/+9efPNN82OO+5oxfD5559vvvSlLzXJaP/73/82Dz/8sPnhD39ofv3rX1uOKls455xzzGGHHWa22GIL+7u3337bCiwtGp588klbjtO3b19z9tlnNykVKReIMOHut/3DH/5g+vXrZ1Q6cdtttxllYt21cuVKm41fuHCh+etf/2rtGzp0qDniiCOsL3q9R48eZvny5U2GD5YORfXjbn7vvfesDSo7Ehv5qnIe2aessEp+ZEvw0qKkU6dOoWU0GzduNI888oiRUBXnLbfcMjQmfjZ/4MCB5qabbjLz5s0z77zzjjnppJPM5ZdfbnbbbbfI+a5Fke6dM2eOeeqpp+z9eqrRvXt3o3732muvUh+ubEV2vfXWW6W5cOCBB5qLLrrIljFtvvnmpfaaM4sWLTITJkywvrh+16xZY15//fVYJUJuzIceesj88pe/NK+88kop6+6y7ZpzmreKd3CxKk6a5zfffLONkWxQXAYNGmTnu7v++c9/mvvvv7/kk15TLM8880xbdqb57RZ9Bx98sB1Pi8h7773XzsXTTz/dXHjhhfbfXBCAAAQgAAEIpJ9A5oS7Mp8jRozYhKzEzd133232339/+5rE5B133GHOPfdcK+z8yxe9r732mhXyEjPBq3///uaqq66KFO9Rwl22SGh+//vft0JO5RO6JMqUeZVg9y8JqR/96Ee2BjqOcI/Tj/qXaJdYveGGGzbxVQy0ebFPnz6JhHslzorJrbfeahdJupxwv+++++zPf/vb35rYIRuCdfVhbyHXz/Tp0zd5WU88JISdeHciep999jHPP/98k/ZaQEn8H3rooZFzRg26deuWSLhrsaNYSnS7rLvLtisGegojge0L90oxUqmVfN55552NFgBa8Cmewcuf3064P/vsszb+Wuz617hx42wfH/vYx9L/aYWFEIAABCAAgYITSJ1wD4tHpY2pEo4SZMq0SiCq9ECXBNKJJ55oPv3pT5uxY8fabLGuF1980QqlU045xbRr187WGisDfcUVV9ga9G233db84x//sMJ56tSpNvN5wAEHVJwmUcJdN2szokojzjvvPJu1lmg97bTTbLZXY++3335WPP3lL38xl112mXn//fftU4AddtihlDUNOxkkST/q76yzzjKDBw+22VsJV2WvH3vsMSOR6TalltucGlb/rnIg+fHxj3+8xNllrSUIJTLdUwZ3v8qH9ERjwIABZvfddzfr1q0zw4YNszaId4cOHRK/LTXm448/bvlqDugphS4n3L/yla9YzocffrjNRCurLhbKOivTr6cbYXNGv9fiTvNEsYmzKdeNKX+U2Vf/yrrricSNN95o/v73v9sF4RNPPLGJcFeMxF+LUy2iFH9xu+eee+y8kFjXk4VXX33Vbmj98pe/bG3TvFUsV6xYYZ+myC8tVpxw1xMq3a/fq0/FTe8ZiXnFQ3HiggAEIAABCEAg3QQyJ9wl0JQ91GkdEmoSJhKeuiR4VOKw1VZb2cykBM3PfvazssLbiZ9vf/vb9l5/4+gbb7xhTj31VPPNb36zJGjLhTKOcHeZ8+985zs2s/2rX/3KZtvD7FPZibLtP//5z60wq1TjHrefz3/+87Yc5t133y0tCML8qbQ5New1jS+fwk5PcSJ0/vz5tva/Ut/qR3Xg/j6BSm+df/3rXzb+DzzwgFEpkuKlMiddErdu8eGLaLf/QG30FEY8ttlmm1KWv9KcqabG3fmiRZuy7oq3ngqpXEWLQWeby7g7mySsJey1GHLX+vXrbTmYMvia4yq10fzcY489bNtywrvS3JG/KiNL62lN6f7oxDoIQAACEIBA4wmkTrhX2pyq7KAe7eu/sMsvtZDQkgCulE0sV4bi9z169OjI86/jCHeXcVdNseyMOolGNjjhV0l8xe1HWWxlaDt37lzKMNdCuGv8iRMnhoq/oDCtJNzLCewwGyXSxVGbfcMuP2bl+g2zpZI4b45w1yJDWXfNW2W5nSgP8nFxDttj4Px0c3zrrbculYLptX333ddm77X4UZbfHeMZNXfKxa7xH0WMCAEIQAACEIBAFIFMCXdtFlQ5yzHHHGN+8IMfmM997nM2A6l632B5R9qEu8s+u8x0XMGtLHGU+AqeIR8MuhYAeRLuruRHMddGzLZt29p5oCx08MuG0iDcFQ8t3LTHQeVXbh9Gc4S7hLnKxFSCo30TivGjjz5a2hOhIyiVhY+aOwj3qI9IXocABCAAAQikh0CmhLvE7pVXXrlJHXRY9lSbHCVK4pTKqCxFmcxqr6iM+5/+9CdbT616ble3rtIQlWqodEKn4VS6nPgKy5bH7UeiVjZokeNsqJRxVzuVdKiUxF3lSmWU5f3FL35hvvGNbzTpMkmpTJKMe7lFWZhITSLcNWe0mTasdKQ5GfdysS1XKqPyF42XdMOoysj0FEJ17NpsfeyxxyLcq31Tcx8EIAABCEAghQQyJdwlqHREo7KWqu+VsNHGwbvuustMmzbNbjx0p5Jo4582g+q4w6jNqdoQqY17qnXffvvtjQSQNhAqw6+fJYAqXeXOcV+9erUVgVpAKCPsn7DiNpWq5EE17yp1UG2+Nhj++c9/tllUjbv33nvbYwx79+5tTZCfOq3FXXH70dOJKVOm2CcVlTanqs5fZSgSlbLXP2Kz0uZUlYNcffXVRptAozanyvbg6TFJhPv48ePtHgad1HPkkUdaFG7TsRYb8lFMdSUR7u6JjhZy2h+hzbtir8WfFow6qSbp5lS/rj44h4LCXa9rsaNNvZqP2vTrjn/UaTBqr/mu94A2ZN9yyy12E66epmjuKAby4YwzzrCbYBHuKfzExSQIQAACEIBAMwhkSrhLnKksRALGv3R6hoSLanydIHRC8pJLLtkET9zjIHVjnC+Eiip70eJBYlNnhvsbYMsd46hxfRuD37QZfD1uP5WOvvT3B7hSFB9cuXPcqzkOsrnC3S3KgsdoiplOqNFpLNUI93JHMUo869SWL3zhC3UX7pWOgxQ3V79faX+Gf2wkpTLN+HTkVghAAAIQgEDKCGRKuIudjrvTUXkLFiywpScqC9DRjhLGQUHovoBJmWb/i4GUsdQGPvfFO8EvJVJ2XF+Mo2ymTpXxv64+LH5hwl1ZcQlJfSGOTl1p06ZNaOi1GFE9sk5HkRjTfcqUamzZ6L4kShlXnZaihYT+rTPF9bOOu9QVtx/nq7LpOpVFiwothpTd3XPPPW1fyqz/+Mc/tue9yyYdsymGWiCFHRVZzRcwNSfjrvFUz615oLiKk05sEWvVkfvHZibJuMt3n7NOeXFf7qXSk9/+9rd1F+6ywX2xkp4oyH7ZofmoL6nS4m+XXXax2XUtppR11xc9aRGjI0XVRgsXd8oMwj1ln7iYAwEIQAACEGgGgdQI92b4wK0QgAAEIAABCEAAAhDIPQGEe+5DjIMQgAAEIAABCEAAAnkggHDPQxTxAQIQgAAEIAABCEAg9wQQ7rkPMQ5CAAIQgAAEIAABCOSBAMI9D1HEBwhAAAIQgAAEIACB3BNAuOc+xDgIAQhAAAIQgAAEIJAHAgj3PEQRHyAAAQhAAAIQgAAEck8g08L9gw8+NL999FGz7MmnzJ///Lx5ZfVqs27d2+bDDz/MfeBwEAIQgAAEIAABCECgMoEtt9zStG69vdmjbVvz+c/vYzrtt685+KCDzFZbbZlJdJkU7s88+5yZ99OfmYW/fNB0/NL/2P/23vtzpm3b3c0OrVsbBYkLAhCAAAQgAAEIQKDYBJTMfWvdOrN69avmhRf+1yx/+o/2v25Hfc10P+F488Uv/FemAGVKuAv69B/fZDPsxx7zLfP1rx1pWrdunSngGAsBCEAAAhCAAAQg0HIE1q1bZ3714CJz3/0P2Az8OWefZZO/WbgyI9x/du99ZtI115mTT/qu6XnqyVlgi40QgAAEIAABCEAAAikmMPv2OWbOnXebwYPON8cfd2yKLf2PaZkQ7tdcO8Vm2Qf0O9d8fp99Ug8VAyEAAQhAAAIQgAAEskHgz88/b66fdqPNvg/6wcBUG5164T5m7Hjz5ptvmUsvHkzteqqnEsZBAAIQgAAEIACBbBJQLfz4KyeZHXfcwQwfdmlqnUi1cFem/eWXXzEjLksvwNRGFsMgAAEIQAACEIAABBIRGH3FePPpT++R2sx7aoW7atrvnvczc83ECWTaE005GkMAAhCAAAQgAAEIVENAmfdBQy4x3+1+fCpr3lMp3HV6TI9Te5urJ46npr2aWcc9EIAABCAAAQhAAAJVEVDN+4VDLjVzb5+ZutNmUincR4wcbXbZeWdOj6lqunETBCAAAQhAAAIQgEBzCOi0mdffeMOMHjmiOd3U/N7UCXd9udLFlw4zM2+ZUXNn6RACEIAABCAAAQhAAAJxCPQ+vY+5cvzYVH1JU+qEu06R2XWXXcyJ3+0ehyltIAABCEAAAhCAAAQgUHMCd909z7z2+uupOmUmVcL9gw8+NEd+/Wgz85ab+EbUmk8/OoQABCAAAQhAAAIQiEtA37Da+/SzzKJfLTBbbbVl3Nvq2i5Vwv2hhx8xWt1cMfryujpN5xCAAAQgAAEIQAACEIgicNmIUbYK5PDDDo1q2pDXUyXcdW77J7bdljKZhoSeQSAAAQhAAAIQgAAEKhFQQvnd995LzbnuqRLu5/YdYE468Ttmv307MosgAAEIQAACEIAABCDQogSefGq5ufOue8yNN1zfona4wVMl3I85rru5euIEexQkFwQgAAEIQAACEIAABFqSgI6EvHDIJeb+e+e1pBmlsVMl3Lse9lUz7647+KbUVEwNjIAABCAAAQhAAALFJqBvUu1+4ilmycO/TgWIVAn3Aw8+1Cx44N5UgMEICEAAAhCAAAQgAAEIHP2t48zjv30kFSAQ7qkIA0ZAAAIQgAAEIAABCKSRAMK9TFTIuKdxumITBCAAAQhAAAIQKC4BhDvCvbizH88hAAEIQAACEIBAhggg3BHuGZqumAoBCEAAAhCAAASKSwDhjnAv7uzHcwhAAAIQgAAEIJAhAgh3hHuGpiumQgACEIAABCAAgeISQLgj3Is7+/EcAhCAAAQgAAEIZIgAwh3hnqHpiqkQgAAEIAABCECguAQQ7gj34s5+PIcABCAAAQhAAAIZIoBwR7hnaLpiKgQgAAEIQAACECguAYQ7wr24sx/PIQABCEAAAhCAQIYIINwR7hmarpgKAQhAAAIQgAAEiksA4Y5wL+7sx3MIQAACEIAABCCQIQIId4R7hqYrpkIAAhCAAAQgAIHiEkC4I9yLO/vxHAIQgAAEIAABCGSIAMId4Z6h6YqpEIAABCAAAQhAoLgEEO4I9+LOfjyHAAQgAAEIQAACGSKAcEe4Z2i6YioEIAABCEAAAhAoLgGEO8K9uLMfzyEAAQhAAAIQgECGCCDcEe4Zmq6YCgEIQAACEIAABIpLAOGOcC/u7MdzCEAAAhCAAAQgkCECCHeEe4amK6ZCAAIQgAAEIACB4hJAuCPcizv78RwCEIAABCAAAQhkiADCHeGeoemKqRCAAAQgAAEIQKC4BBDuCPfizn48hwAEIAABCEAAAhkigHBHuGdoumIqBCAAAQhAAAIQKC4BhDvCvbizH88hAAEIQAACEIBAhggg3BHuGZqumAoBCEAAAhCAAASKSwDhjnAv7uzHcwhAAAIQgAAEIJAhAgh3hHuGpiumQgACEIAABCAAgeISQLgj3Is7+/EcAhCAAAQgAAEIZIgAwh3hnqHpiqkQgAAEIAABCECguAQQJ+1Q7wAAIABJREFU7gj34s5+PIcABCAAAQhAAAIZIoBwR7hnaLpiKgQgAAEIQAACECguAYQ7wr24sx/PIQABCEAAAhCAQIYIINwR7hmarpgKAQhAAAIQgAAEiksA4Y5wL+7sx3MIQCA2gffff98MHTrU3HLLLaV7pk+fbk488cTYfUQ1fOGFF8yECRPMVVddZXbccceo5rwOAQhAoHAEEO4I98JNehyGAASSEXjzzTfN97//fXPggQeaIUOG2Jvd7/Szfl+LC+FeC4r0AQEI5JkAwh3hnuf5jW8QgEANCNx1113m0UcfNePGjTNbb711qUf9/sUXX7Ri/vHHH7eZ8jfeeMPsv//+tu3Pf/5zc84559j2//3f/21+8pOfmD322MNm7jt27GhmzJhh/vSnPxmXuXfC/ctf/rIZNmxY6Z699967Bl7QBQQgAIHsE0C4I9yzP4vxAAIQqBsBVyJz0EEHVSyLkXCXgJc4l9DWzxMnTjQ/+tGPbNmL/q1rwIABVri/9NJL9jVl7i+++GJz5ZVX2tfPPPNM20YlOLrnb3/72yYLhro5S8cQgAAEUk4A4Y5wT/kUxTwIQKAlCTjh3qNHj1JJjAT1+PHjrVmnn366FdbLly9vItSDNrvsvBPu/kJA/e21115mv/32K4l4J/7nzp2LcG/JCcDYEIBAqggg3BHuqZqQGAMBCKSLQKWMu7LqTlhLuPsiO2wz66WXXlrKuAcXAk64+5tT/f79Ep10EcIaCEAAAo0jgHBHuDdutjESBCCQSQLlatwrCffgPeUy7v7CQBl3hHsmpwhGQwACDSKAcEe4N2iqMQwEIJBVApVOldlzzz1LpTJ+xt0X7uvXry+dSuNKZcRCJTavvPJKkxp3hHtWZwl2QwACjSCAcEe4N2KeMQYEIJADAn5tu9zxz3EPlrU4sb9o0SJz5JFH2k2nDz74oBkxYoQZPXq0+dSnPlWqk58/f76tnw8eB0mpTA4mDS5AAAI1JYBwR7jXdELRGQQgAIFKBMI2u0IMAhCAAATiEUC4I9zjzRRaQQACEKgBAYR7DSDSBQQgUFgCCHeEe2EnP45DAAIQgAAEIACBLBFAuCPcszRfsRUCEIAABCAAAQgUlgDCHeFe2MmP4xCAAAQgAAEIQCBLBBDuCPcszVdshQAEIAABCEAAAoUlgHBHuBd28uM4BCAAAQhAAAIQyBIBhDvCPUvzFVshAAEIQAACEIBAYQkg3BHuhZ38OA4BCEAAAhCAAASyRADhjnDP0nzFVghAAAIQgAAEIFBYAgh3hHthJz+OQwACEIAABCAAgSwRQLgj3LM0X7EVAhCAAAQgAAEIFJYAwh3hXtjJj+MQgAAEIAABCEAgSwQQ7gj3LM1XbIUABCAAAQhAAAKFJYBwR7gXdvLjOAQgAAEIQAACEMgSAYQ7wj1L8xVbIQABCEAAAhCAQGEJINwR7oWd/DgOAQhAAAIQgAAEskQA4Y5wz9J8xVYIQAACEIAABCBQWAIId4R7YSc/jkMAAhCAAAQgAIEsEUC4I9yzNF+xFQIQgAAEIAABCBSWAMId4V7YyY/jEIAABCAAAQhAIEsEEO4I9yzNV2yFAAQgAAEIQAAChSWAcEe4F3by4zgEIAABCEAAAhDIEgGEO8I9S/MVWyEAAQhAAAIQgEBhCSDcEe6Fnfw4DgEIQAACEIAABLJEAOGOcM/SfMVWCEAAAhCAAAQgUFgCCHeEe2EnP45DAAIQgAAEIACBLBFAuCPcszRfsRUCEIAABCAAAQgUlgDCHeFe2MmP4xCAAAQgAAEIQCBLBBDuCPcszVdshQAEIAABCEAAAoUlgHBHuBd28uM4BCAAAQhAAAIQyBIBhDvCPUvzFVshAAEIQAACEIBAYQkg3BHuhZ38OA4BCEAAAhCAAASyRADhjnDP0nzFVghAAAIQgAAEIFBYAgh3hHthJz+OQwACEIAABCAAgSwRQLgj3LM0X7EVAhCAAAQgAAEIFJYAwh3hXtjJj+MQgAAEIAABCEAgSwQQ7gj3LM1XbIUABCAAAQhAAAKFJYBwR7gXdvLjOAQgAAEIQAACEMgSAYR7mWh1PeyrZt5dd5gtt9wyS/HEVghAAAIQgAAEIACBHBL48MMPTfcTTzFLHv51KrzbbOPGjRtTYYkx5pjjupurJ04wu+y8c1pMwg4IQAACEIAABCAAgYISeP2NN8yFQy4x9987LxUEUiXcz+07wJx04nfMfvt2TAUcjIAABCAAAQhAAAIQKC6BJ59abu686x5z4w3XpwJCqoT7NddOMZ/Ydltz4ne7pwIORkAAAhCAAAQgAAEIFJfAXXfPM+++954Z9IOBqYCQKuH+0MOPGAG6YvTlqYCDERCAAAQgAAEIQAACxSVw2YhRNqF8+GGHpgJCqoT7Bx98aI78+tFm5i03mdatW6cCEEZAAAIQgAAEIAABCBSPwLp160zv088yi361wGy1VToOTkmVcNeUGDN2vNl1l10olyne+wOPIQABCEAAAhCAQGoIqArktddfN8OHXZoam1In3J959jlz8aXDzMxbZqQGEoZAAAIQgAAEIAABCBSLQO/T+5grx481X/zCf6XG8dQJd5EZMXK0PRKy56knpwYUhkAAAhCAAAQgAAEIFIPA7NvnGB0FOXrkiFQ5nErhvnr1q6bHqb3N1RPHm8/vs0+qgGEMBCAAAQhAAAIQgEB+Cfz5+efNhUMuNXNvn2natt09VY6mUriL0M/uvc/cPe9n5pqJE/gm1VRNGYyBAAQgAAEIQAAC+SSgb0odNOQS893ux5vjjzs2dU6mVriLlM51f/nlV8yIy9KzKSB1EcQgCEAAAhCAAAQgAIGaEBh9xXjz6U/vkZpz24NOpVq4y1idMvPmm2+ZSy8eTOa9JlOSTiAAAQhAAAIQgAAEfALKtI+/cpLZcccdUnWKTOaEu8u8L3vyKTOg37nUvPM+gwAEIAABCEAAAhCoGQHVtF8/7UbTab99U5tpd86mPuPuDFXN+6RrrjMnn/RdTpup2VSlIwhAAAIQgAAEIFBcAjo9Zs6dd5vBg85PZU17JjPuzmidNjP9xzcZZd+PPeZb5utfO5JvWC3uew3PIQABCEAAAhCAQGIC+kbUXz24yNx3/wM2y37O2Wel7vSYck5lJuPuO6AvaZr305+Zhb980HT80v/Y//be+3MW+g6tW1MLn3gKcwMEIAABCEAAAhDIHwHVrr+1bp1R8veFF/7XLH/6j/a/bkd9zXQ/4fhUfblSHPqZFO7OsQ8++ND89tFHbQb+z39+3ryyerVZt+5toyBxQQACEIAABCAAAQgUm8CWW25pWrfe3uzRtq35/Of3sRn2gw86yGy11ZaZBJNp4Z5J4hgNAQhAAAIQgAAEIACBKggg3KuAxi0QgAAEIAABCEAAAhBoNAGEe6OJMx4EIAABCEAAAhCAAASqIIBwrwIat0AAAhCAAAQgAAEIQKDRBBDujSbOeBCAAAQgAAEIQAACEKiCAMK9CmjcAgEIQAACEIAABCAAgUYTQLg3mjjjQQACEIAABCAAAQhAoAoCCPcqoHELBCAAAQhAAAIQgAAEGk0A4d5o4owHAQhAAAIQgAAEIACBKggg3KuAxi0QgAAEIAABCEAAAhBoNAGEe6OJMx4EIAABCEAAAhCAAASqIIBwrwIat0AAAhCAAAQgAAEIQKDRBBDujSbOeBCAAAQgAAEIQAACEKiCAMK9CmjcAgEIQAACEIAABCAAgUYTQLg3mjjjQQACEIAABCAAAQhAoAoCCPcqoHELBCAAAQhAAAIQgAAEGk0A4d5o4owHAQhAAAIQgAAEIACBKggg3KuAxi0QgAAEIAABCEAAAhBoNAGEe6OJMx4EIAABCEAAAhCAAASqIIBwrwIat0AAAhCAAAQgAAEIQKDRBBDujSbOeBCAAAQgAAEIQAACEKiCAMK9CmjcAgEIQAACEIAABCAAgUYTQLg3mjjjQQACEIAABCAAAQhAoAoCCPcqoHELBCAAAQhAAAIQgAAEGk0A4d5o4owHAQhAAAIQgAAEIACBKggg3KuAVrRbli5darp27WqWLFliunTpUjT38RcCEIAABCAAAQikgkBqhPs///lPc//995ubbrrJSCi+88475jOf+Yw58MADzVFHHWW+/e1vm1122aWu0DZs2GAuuOACO8bkyZNNq1atSuOtXbvW9OzZ0/48e/Zs06ZNm7raUovOayW4a9VPLXyiDwhAAAIQgAAEIFBUAqkQ7hLFF154obn11lvLxuGcc87ZREzXOmgI93CiCPdazzT6gwAEIAABCEAAAskJpEK4z5gxw2a69d95551ndt11V7PZZpuZDz74wKxevdo88sgj5vnnnzfDhg1rkgVP7m7lOyoJ91qP1Yj+aiW4a9VPI3xmDAhAAAIQgAAEIJBXAqkQ7mPGjDEPP/ywLUGRaI9zbdy40Tz22GPm+uuvNwsXLjQffvihOfroo83QoUPNvvvuW+rCic5f//rX5q233jI//OEPjf6tEpyLLrrIHH/88WbzzTc3rhRGfQUv1XZ36tRpkzIaJ/T//e9/mzPOOMP8+Mc/Nvfee6+9XT9ffPHFRm1uu+02M2vWLLNy5Urz1a9+1VxxxRWmc+fOTYZRuzvvvNPcfPPNloXKhHr16mUGDRpkdtxxx1JbMZo4caL5yU9+Yh5//HH7lEL/V7+jR482Bx10kF30qJ3uD17uycXHPvYxW5Y0Z84c89RTT5VKk7p3724GDhxo9tprr00YUuMeZ2bSBgIQgAAEIAABCNSHQCqE+/jx460Al8CVAJXwrHRJtN9xxx3m3HPPtYLTvyR4JVrdJkon3PfZZx+btfevT33qU1a4Hnrooc0S7tOnTw81V+L8b3/7m/nrX//a5HXZJiHvxPF7771nFxE33HDDJv2ccMIJRv3vvPPO9jX5pqcS+nnVqlVN2nfs2NHMnTvXtG/fPlK460Y94QizPWgfGff6vPnoFQIQgAAEIAABCCQhkArh/txzz9kM9bPPPmuF+5FHHmmz5h06dLCbQJUR969nnnnGnHjiibbNqFGjzOc+9zn78rJly2w5je676qqrzMc//nG70VUnonzlK1+xme7DDz/cbLHFFmbRokXmrLPOMqeffrq5/PLL7WKhUqlM2Gvud7fffrvp27evGTBggNl9993Nyy+/bLPWyr4fc8wxZsSIEWa//fYzH330kbnmmmvsUwG9duyxx1q7XamQ2vXp08fssMMO1pZ77rnHXHbZZfYeZcKdcFcm3e9Xv5cN/fv3N1OnTjWnnXaabZtUcOvJgbL3WhhceumlpkePHlX1k2QC0hYCEIAABCAAAQhAIB6BVAh3mfriiy+aKVOmmHnz5jXJUCuDfv7555vvf//7Ztttt7VeKUuskhJl3T/72c828VRZe70uIat7y4lXZer79etnttlmm9Km12qFuwwInkJTzsYVK1aYk046yZbR6JQaZ4fEultsOIfWr19vff/kJz9pJkyYYLbaaiubSVepjMusu7avvvqq7U+LnuHDh8cS3P/617+sUH/ggQfMH/7wB/PGG2+YJ5980t6rxYI7YSfpAiDe1KMVBCAAAQhAAAIQgEASAqkR7s5oZX3ffvttK94lKnVEpP5TNlnCVkc0qiZe2elyl18yUk50VsqghwnxpO3LCWzVuSuTPWTIECu0K9XWO//8E3XK9ev6UZlLHOEuka6TfGbOnBmKUfXycfpJMtloCwEIQAACEIAABCBQPYHUCfegKxLMqv9evHhxKcuMcN80455UuKs8R6VCyqqfeeaZpm3btjazr0WTFhRxFwDVTz3uhAAEIAABCEAAAhBIQiD1wl3OqOxEp8G48hD9rE2lyj6rprzSVU3GXbXo1113nS2jcVe9Mu6uVGaPPfawTxJ02kulq5qMu06p0QZc/9JYOmZTJUVu46teT7oASDLZaAsBCEAAAhCAAAQgUD2BFhfuEsRjx461GV8d57jbbruVzmpX9lfiUiUb7dq1s5s4VQvuNqdqw6k2o+o1bThVX3/84x/tcY86cUZtkwj3999/35aP6B4ds/ilL32pdMJNvYS7Qie/9FRBG1G1sdQd//jmm29aW1577TVz9tln2ygnEe46LlPfOjt48GBbmuN/E6xO8tECSEdCqi5el/YZ6LQbLVp+8IMfUCpT/fuKO/8fe/cCrlVV74t/dIEsK5GOdBQ024LtbiJquTG3evBamiCCeIkdeU9DDWUjoqh4WSBKXtItJm6KvCCEorbVREqPRdY+KWY3oX1MQRN2uKw0hcr/85vnmev/uoR1eV28zLnmZz4PT7DWvIzxmb9l3znWmOMlQIAAAQIECHS5QCGC+4aWJcx7G8sb3nDDDS2jxm0tBxnHHHjggVnAjRVpOhPc8xAdU0hqt/bWcY99W7+c2tE57nFsW8tBxvdr55t3JrjHUpTxILBo0aKW7uTz5ePhZ8SIEW9aqjLeD2hubs5WtzHHvct/3pyQAAECBAgQIFC3wCYP7tHyVatWZeHy7rvvzlY1iRc4Y9t7773T5z//+Sx81k7niO9FeH/iiSey9d/j2HiZNQJ+LBMZL39+7GMfy5aR7Gxwj5H1+CClWFM92hFtiNVuYh34fJWVPKS3tQpNZ4J79Oe1117LXsKNEfBoc0yhiaUxYwWa+JCoPn36ZCadCe6xf3y40qWXXpruu+++bCQ/AnmsaNOjR4+0ZMmS7CXf/AOpvvjFL6aDDz44W8HHHPe6f6YcSIAAAQIECBDYKAKFCO4bpWdOSoAAAQIECBAgQKAbCQju3ehm6goBAgQIECBAgED3FRDcu++91TMCBAgQIECAAIFuJCC4d6ObqSsECBAgQIAAAQLdV0Bw7773Vs8IECBAgAABAgS6kYDg3o1upq4QIECAAAECBAh0XwHBvfveWz0jQIAAAQIECBDoRgKCeze6mbpCgAABAgQIECDQfQVKHdzXrl2XfrRkSfrZY4+np55allasXJmam19K69at6753TM8IECBAgAABAgQ6JBAfONmr1xapX9++accdB6RdBu2c9hg8OPXs2aNDxxdtp1IG91/88ldpwR13pvu/tygN3OmT2Z/+/XdIfftuk7bs1Sv7VFAbAQIECBAgQIBAtQViMPfF5ua0cuVzafny36alT/w8+3PgAful4YcNSx//2EdLBVSq4B7oM79xYzbCfughB6f99xuSevXqVSpwjSVAgAABAgQIENh0As3NzemBRYvTXfd8NxuBP+mE47PB3zJspQnudy68K10+46p05BEj0jFHH1kGW20kQIAAAQIECBAosMDNt9yWbrt9fjpr3Olp2NBDC9zS/9e0UgT3GVdenY2yjz315LTjgAGFR9VAAgQIECBAgACBcgg8tWxZuuba67PR93FnnFboRhc+uF90SVNas+bFNHHCWeauF7qUNI4AAQIECBAgUE6BmAvfNO3y1Lv3lum8SRML24lCB/cYaX/22RVp8rnFBSzsndUwAgQIECBAgACBTglMubgpbbttv8KOvBc2uMec9vkL7kwzpk810t6pkrMzAQIECBAgQIBAPQIx8j5u/NlpxPBhhZzzXsjgHqvHjDp6dLpiepM57fVUnWMIECBAgAABAgTqEog572eOn5jm3jKncKvNFDK4T75gSuqz1VZWj6mr3BxEgAABAgQIECDwVgRitZlVq1enKRdMfiun6fJjCxfc48OVJkyclObMntXlnXVCAgQIECBAgAABAh0RGD3muDSt6ZJCfUhT4YJ7rCLzwT590sgRwztiah8CBAgQIECAAAECXS4wb/6C9MKqVYVaZaZQwX3t2nVpyP4HpTmzb/SJqF1efk5IgAABAgQIECDQUYH4hNXRY45Pix+4L/Xs2aOjh23U/QoV3H/w0MMpnm4unnL+Ru20kxMgQIAAAQIECBBoT+DcyRdms0D22Xuv9nZtyPcLFdxj3fb3br65aTINufUuQoAAAQIECBAg0JZADCj/+eWXC7Oue6GC+8mnjE1HjDw8Ddp5oCoiQIAAAQIECBAgsEkFHnt8abp93nfS9ddds0nbkV+8UMH9kKHD0xXTp2ZLQdoIECBAgAABAgQIbEqBWBLyzPFnp3sWLtiUzWi5dqGC+55775sWzLvVJ6UWojQ0ggABAgQIECBQbYH4JNXhI49Kjzz0YCEgChXcd99jr3TfdxcWAkYjCBAgQIAAAQIECBx08ND06I8eLgSE4F6I26ARBAgQIECAAAECRRQQ3DdwV4y4F7FctYkAAQIECBAgUF0BwV1wr2716zkBAgQIECBAoEQCgrvgXqJy1VQCBAgQIECAQHUFBHfBvbrVr+cECBAgQIAAgRIJCO6Ce4nKVVMJECBAgAABAtUVENwF9+pWv54TIECAAAECBEokILgL7iUqV00lQIAAAQIECFRXQHAX3Ktb/XpOgAABAgQIECiRgOAuuJeoXDWVAAECBAgQIFBdAcFdcK9u9es5AQIECBAgQKBEAoK74F6ictVUAgQIECBAgEB1BQR3wb261a/nBAgQIECAAIESCQjugnuJylVTCRAgQIAAAQLVFRDcBffqVr+eEyBAgAABAgRKJCC4C+4lKldNJUCAAAECBAhUV0BwF9yrW/16ToAAAQIECBAokYDgLriXqFw1lQABAgQIECBQXQHBXXCvbvXrOQECBAgQIECgRAKCu+BeonLVVAIECBAgQIBAdQUEd8G9utWv5wQIECBAgACBEgkI7oJ7icpVUwkQIECAAAEC1RUQ3AX36la/nhMgQIAAAQIESiQguAvuJSpXTSVAgAABAgQIVFdAcBfcq1v9ek6AAAECBAgQKJGA4C64l6hcNZUAAQIECBAgUF0BwV1wr2716zkBAgQIECBAoEQCgrvgXqJy1VQCBAgQIECAQHUFBHfBvbrVr+cECBAgQIAAgRIJCO6Ce4nKVVMJECBAgAABAtUVENwF9+pWv54TIECAAAECBEokILgL7iUqV00lQIAAAQIECFRXQHAX3Ktb/XpOgAABAgQIECiRgOAuuJeoXDWVAAECBAgQIFBdAcFdcK9u9es5AQIECBAgQKBEAoK74F6ictVUAgQIECBAgEB1BQR3wb261a/nBAh0WODVV19N55xzTpo9e3bLMTNnzkwjR47s8Dna23H58uVp6tSp6bLLLku9e/dub3ffJ0CAQOUEBHfBvXJFr8MECHROYM2aNenEE09Mu+++exo/fnx2cP61+Hd8vSs2wb0rFJ2DAIHuLCC4C+7dub71jQCBLhCYN29eWrJkSbr00kvTZptt1nLG+PrTTz+dhflHH300GylfvXp12m233bJ977777nTSSSdl+3/iE59IN910U+rXr182cj9w4MA0a9as9OSTT6Z85D4P7rvuumuaNGlSyzH9+/fvgl44BQECBMovILgL7uWvYj0gQGCjCeRTZAYPHtzmtJgI7hHgI5xH0I5/T58+Pd1www3ZtJf4e2xjx47NgvszzzyTfS9G7idMmJCmTZuWff/YY4/N9okpOHHM888//6YHho3WWScmQIBAwQUEd8G94CWqeQQIbEqBPLiPGjWqZUpMBOqmpqasWWPGjMmC9dKlS98Q1Fu3OR+dz4N77YNAnG/77bdPgwYNagnxefifO3eu4L4pC8C1CRAolIDgLrgXqiA1hgCBYgm0NeIeo+p5sI7gXhuy1/cy68SJE1tG3Fs/COTBvfbl1Nrz107RKZaQ1hAgQKBxAoK74N64anMlAgRKKbChOe5tBffWx2xoxL32wSBG3AX3UpaIRhMg0CABwV1wb1CpuQwBAmUVaGtVme22265lqkztiHttcH/llVdaVqXJp8qERUyxWbFixRvmuAvuZa0S7SZAoBECgrvg3og6cw0CBLqBQO3c9uhO7Trurae15GF/8eLFaciQIdlLp4sWLUqTJ09OU6ZMSVtvvXXLPPl77703mz/fejlIU2W6QdHoAgECXSoguAvuXVpQTkaAAIG2BNb3sisxAgQIEOiYgOAuuHesUuxFgACBLhAQ3LsA0SkIEKisgOAuuFe2+HWcAAECBAgQIFAmAcFdcC9TvWorAQIECBAgQKCyAoK74F7Z4tdxAgQIECBAgECZBAR3wb1M9aqtBAgQIECAAIHKCgjugntli1/HCRAgQIAAAQJlEhDcBfcy1au2EiBAgAABAgQqKyC4C+6VLX4dJ0CAAAECBAiUSUBwF9zLVK/aSoAAAQIECBCorIDgLrhXtvh1nAABAgQIECBQJgHBXXAvU71qKwECBAgQIECgsgKCu+Be2eLXcQIECBAgQIBAmQQEd8G9TPWqrQQIECBAgACBygoI7oJ7ZYtfxwkQIECAAAECZRIQ3AX3MtWrthIgQIAAAQIEKisguAvulS1+HSdAgAABAgQIlElAcBfcy1Sv2kqAAAECBAgQqKyA4C64V7b4dZwAAQIECBAgUCYBwV1wL1O9aisBAgQIECBAoLICgrvgXtni13ECBAgQIECAQJkEBHfBvUz1qq0ECBAgQIAAgcoKCO6Ce2WLX8cJECBAgAABAmUSENwF9zLVq7YSIECAAAECBCorILgL7pUtfh0nQIAAAQIECJRJQHAX3MtUr9pKgAABAgQIEKisgOAuuFe2+HWcAAECBAgQIFAmAcFdcC9TvWorAQIECBAgQKCyAoK74F7Z4tdxAgQIECBAgECZBAR3wb1M9aqtBAgQIECAAIHKCgjugntli1/HCRAgQIAAAQJlEhDcBfcy1au2EiBAgAABAgQqKyC4C+6VLX4dJ0CAAAECBAiUSUBwF9zLVK/aSoAAAQIECBCorIDgLrhXtvh1nAABAgQIECBQJgHBXXAvU71qKwECBAgQIECgsgKCu+Be2eLXcQIECBAgQIBAmQQEd8G9TPWqrQQIECBAgACBygoI7oJ7ZYtfxwkQIECAAAECZRIQ3Ddwt/bce9+0YN6tqUePHmW6n9pKgABCqLlaAAAgAElEQVQBAgQIECDQDQXWrVuXho88Kj3y0IOF6N3bXn/99dcL0ZKU0iFDh6crpk9NfbbaqihN0g4CBAgQIECAAIGKCqxavTqdOf7sdM/CBYUQKFRwP/mUsemIkYenQTsPLASORhAgQIAAAQIECFRX4LHHl6bb530nXX/dNYVAKFRwn3Hl1em9m2+eRo4YXggcjSBAgAABAgQIEKiuwLz5C9KfX345jTvjtEIgFCq4/+Chh1MAXTzl/ELgaAQBAgQIECBAgEB1Bc6dfGE2oLzP3nsVAqFQwX3t2nVpyP4HpTmzb0y9evUqBJBGECBAgAABAgQIVE+gubk5jR5zfFr8wH2pZ89iLJxSqOAeJXHRJU3pg336mC5TvZ8PPSZAgAABAgQIFEYgZoG8sGpVOm/SxMK0qXDB/Re//FWaMHFSmjN7VmGQNIQAAQIECBAgQKBaAqPHHJemNV2SPv6xjxam44UL7iEz+YIp2ZKQxxx9ZGGgNIQAAQIECBAgQKAaAjffcluKpSCnXDC5UB0uZHBfufK5NOro0emK6U1pxwEDCgWmMQQIECBAgAABAt1X4Klly9KZ4yemubfMSX37blOojhYyuIfQnQvvSvMX3JlmTJ/qk1QLVTIaQ4AAAQIECBDongLxSanjxp+dRgwfloYNPbRwnSxscA+pWNf92WdXpMnnFuelgMLdQQ0iQIAAAQIECBDoEoEpFzelbbftV5h121t3qtDBPRobq8ysWfNimjjhLCPvXVKSTkKAAAECBAgQIFArECPtTdMuT717b1moVWRKF9zzkfefPfZ4Gnvqyea8+zkjQIAAAQIECBDoMoGY037NtdenXQbtXNiR9ryzhR9xzxsac94vn3FVOvKIEVab6bJSdSICBAgQIECAQHUFYvWY226fn84ad3oh57SXcsQ9b3SsNjPzGzemGH0/9JCD0/77DfEJq9X9WdNzAgQIECBAgECnBeITUR9YtDjddc93s1H2k044vnCrx2yoU6UZca/tQHxI04I77kz3f29RGrjTJ7M//fvvkKFv2auXufCdLmEHECBAgAABAgS6n0DMXX+xuTnF4O/y5b9NS5/4efbnwAP2S8MPG1aoD1fqiH4pg3vesbVr16UfLVmSjcA/9dSytGLlytTc/FKKm2QjQIAAAQIECBCotkCPHj1Sr15bpH59+6YddxyQjbDvMXhw6tmzRylhSh3cSymu0QQIECBAgAABAgTqEBDc60BzCAECBAgQIECAAIFGCwjujRZ3PQIECBAgQIAAAQJ1CAjudaA5hAABAgQIECBAgECjBQT3Rou7HgECBAgQIECAAIE6BAT3OtAcQoAAAQIECBAgQKDRAoJ7o8VdjwABAgQIECBAgEAdAoJ7HWgOIUCAAAECBAgQINBoAcG90eKuR4AAAQIECBAgQKAOAcG9DjSHECBAgAABAgQIEGi0gODeaHHXI0CAAAECBAgQIFCHgOBeB5pDCBAgQIAAAQIECDRaQHBvtLjrESBAgAABAgQIEKhDQHCvA80hBAgQIECAAAECBBotILg3Wtz1CBAgQIAAAQIECNQhILjXgeYQAgQIECBAgAABAo0WENwbLe56BAgQIECAAAECBOoQENzrQHMIAQIECBAgQIAAgUYLCO6NFnc9AgQIECBAgAABAnUICO51oDmEAAECBAgQIECAQKMFBPdGi7seAQIECBAgQIAAgToEBPc60BxCgAABAgQIECBAoNECgnujxV2PAAECBAgQIECAQB0CgnsdaA4hQIAAAQIECBAg0GgBwb3R4q5HgAABAgQIECBAoA4Bwb0ONIcQIECAAAECBAgQaLSA4N5ocdcjQIAAAQIECBAgUIeA4F4HmkMIECBAgAABAgQINFqgMMH9hz/8Ydpzzz3f0P8PfehDab/99ksnnHBC+vSnP53e9ra3Ndqnw9e7+eab0xe+8IUN7j9w4MA0d+7c9JGPfKRD5/zLX/6SvvrVr2b7fu1rX0vvfve7W477wx/+kI455pjs33HdD3zgAx06Z1fvlN+zRx55JH3mM595w+lzj29/+9stbe3q6zsfAQIECBAgQKBKAoUO7vmNeN/73peuv/76dNRRRxU2vAvugnuV/sOhrwQIECBAgEDjBQoX3GtHaNeuXZsWL16czj777LT55punW265JcUofBG3PLivb/S5nva2NeJez/k2xjFtjbhvjOs5JwECBAgQIECgygKFDu75jZk5c2Y6+eSTUx6KX3/99fTwww+nK6+8Mj344IOpR48eaejQoen0009PO+200xtG5Z9++ul09dVXpwULFqTf/e53affdd08jR45MRx99dNp6661b7v1LL72UZs2aleLB4bHHHsumtJxyyinZNJ3aaSobKpbOBve22tWzZ89sesn999//psuFwS677PKmaTR50P/73/+evvSlL6VvfOMbaeHChdnx8e8JEyak2Odb3/pW1sff/OY3ad99900XX3xx+qd/+qeW6/z+979PU6ZMST/+8Y8zh9jC7Itf/GL6l3/5l+wBKrYN/YbhpJNOyqb2/OxnP8umPrV+kFmzZk264YYb0uzZs7M2rO/c+fmnT5+ebrrppvToo4+mb37zm9n/RpujfYMHDy7sb1+q/B8UfSdAgAABAgQ2nkDhg3uE9AiCl19+ebr77ruz0HrrrbdmQf5Pf/rTG2RiND4C3t577519fdmyZWn06NFZ4Gu9Rfg777zzsi+/8MILKQJnHnRr9/3KV76SLrvssnbDe2eCe3vtigeGeoN7POSsb4tw/vzzz2cPL7VbzE2PIL/99ttnX44wPWrUqLR06dI3nebMM89Ml1xySXrXu95VV3Bvyzn6HM61DwZf/vKX01ZbbZX+67/+6w1t6ez7Ahvvx8eZCRAgQIAAAQKNEyh0cH/55ZfTvffem84666wssMeIeIT1GPmN8BghMr4eo8wxpeZf//Vfs6AXo8oxmh4h9oorrsj+nb/cGiO+MZK9evXqbIT+b3/7W7rwwguzfWL0+bDDDsvC4x//+MdsZPjrX/96uv3227Pj29o6M8e9I+1qa6rM+r6Xfy2mE0UIHjt2bNpmm23Ss88+m0477bTsoeSQQw5JkydPToMGDcr6PWPGjHTOOedk3zv00EM32L18pD5G8W+77bbUv3//bN+2psqs73thGdeLNpx44onp/e9/f/YwEe2IB7Mbb7wxHXfccdm5c8/aNsfXo3/xMBXnijqwESBAgAABAgSqIlC44L4++NqR9AceeCAdfvjh6Y477simTdRuEexjJZYI+zGSHGE85sfHi60RAN/+9re/6fTPPfdcNrr9+c9/Pju2duWaCPcxpeZzn/tcy9SUDRVGZ4J7R9pVb3CP9rVehSYeFP793/89+03Fhz/84ZYu/PrXv05HHHFENo0mX6UmvhkPLfFw8x//8R9pxYoV2W8uYqQ+Hobitx677rprp4N7PHCdeuqp6R3veEcWuvOR9ThRhPcI4TvssENL28Mzpsq0Xoknv19Dhgxp+Y1JVX5Y9ZMAAQIECBCotkChg3vMMz/44IOz0eN8KseGAl3cxnyUN3/BtXZqRpwrRpr32WefLIj369cvC+ltTQ3JS6N2Wk17wb0jL6d2pF1dGdw3ZJb3ffz48S3BfcmSJSmmqKxvqkz0vbZ/nRlxz5ewjAeqfIpSbpn3Neb958tbbqjNbZ2n2j/Kek+AAAECBAh0d4HCBff21v3uTHCPmxehMOa4/+AHP8hC509+8pPsZdYYhY+XVDdFcO9IuzZFcI+pSTEN5fvf/36aNGlS+uxnP5tiKc6Y0vKjH/3oTS+bCu7d/T8P+keAAAECBAgUSaB0wT2myhxwwAHZNI4IlrVb66ky64OOqR/xYmusFBNzqiOsxjSRI488MntBtd6tMy+ndqRdsbJMTN2JuehXXXVVes973tNyWFtz3GOn1lNlOjrino9mx4us559//humDa0vpOdfe+ihh9Jee+31hm613j+fKhPvI1x77bVpiy22aNm/M1NljLjXW6GOI0CAAAECBMouULrg/swzz2Tzof/6179mL55+6lOf2uDLqRF442XVAw88MPXu3TsLohH8Yt57c3NzFtzf+973Zi+nxguo5557bjbXPUJlBMxYGjGWm4x/t/XyZhRBZ4J7R9oVL9/GKi4RgGOlnNplLjdWcH/xxRezVXje+c53ZktobrfddinW0o/fUlx33XXZHPnaqTKxZGQ8RMXLwzHdpnbZzLZeTo1948Xg9l5OXd8cd8G97P/J0X4CBAgQIECgXoHSBfdYHrKjy0FedNFF2QomrbeY/hErxsQoe2xtLVMY329v+k5tcN/QjahdwrCj7YrfIBx//PFvOGV767i/lRH3sI3AfsYZZ7ypG3vssUc2XaY2uOcj5YsWLWrZv6113Du7HKTgXu+PteMIECBAgACB7ihQuuAeN6GjH8AUwTKWD4yVUGI6R4y6x0o08fJlrPVeu8pMTJmJ1V5iFZPYN8J97BtrmsfLrDE63NbWmVVlOtquGFmPJRhjtDvm4kebI1gPGDBggx/A9FaCexz72muvZR+OFNNtYgWXMIjlJGMUPqbDtH759vHHH0+XXnppuu+++zLfWM4xVqn56U9/2iUfwNR6VRkj7t3xP0P6RIAAAQIECHREoDDBvSONtQ8BAgQIECBAgACBqgoI7lW98/pNgAABAgQIECBQKgHBvVS3S2MJECBAgAABAgSqKiC4V/XO6zcBAgQIECBAgECpBAT3Ut0ujSVAgAABAgQIEKiqgOBe1Tuv3wQIECBAgAABAqUSENxLdbs0lgABAgQIECBAoKoCgntV77x+EyBAgAABAgQIlEqg1MF97dp16UdLlqSfPfZ4euqpZWnFypWpufmltG7dulLdBI0lQIAAAQIECBDoeoEePXqkXr22SP369k077jgg7TJo57TH4MGpZ88eXX+xBpyxlMH9F7/8VVpwx53p/u8tSgN3+mT2p3//HVLfvtukLXv1SnGTbAQIECBAgAABAtUWiMHcF5ub08qVz6Xly3+blj7x8+zPgQfsl4YfNix9/GMfLRVQqYJ7oM/8xo3ZCPuhhxyc9t9vSOrVq1epwDWWAAECBAgQIEBg0wk0NzenBxYtTnfd891sBP6kE47PBn/LsJUmuN+58K50+Yyr0pFHjEjHHH1kGWy1kQABAgQIECBAoMACN99yW7rt9vnprHGnp2FDDy1wS/9f00oR3GdceXU2yj721JPTjgMGFB5VAwkQIECAAAECBMoh8NSyZemaa6/PRt/HnXFaoRtd+OB+0SVNac2aF9PECWeZu17oUtI4AgQIECBAgEA5BWIufNO0y1Pv3lum8yZNLGwnCh3cY6T92WdXpMnnFhewsHdWwwgQIECAAAECBDolMOXiprTttv0KO/Je2OAec9rnL7gzzZg+1Uh7p0rOzgQIECBAgAABAvUIxMj7uPFnpxHDhxVyznshg3usHjPq6NHpiulN5rTXU3WOIUCAAAECBAgQqEsg5ryfOX5imnvLnMKtNlPI4D75gimpz1ZbWT2mrnJzEAECBAgQIECAwFsRiNVmVq1enaZcMPmtnKbLjy1ccI8PV5owcVKaM3tWl3fWCQkQIECAAAECBAh0RGD0mOPStKZLCvUhTYUL7rGKzAf79EkjRwzviKl9CBAgQIAAAQIECHS5wLz5C9ILq1YVapWZQgX3tWvXpSH7H5TmzL7RJ6J2efk5IQECBAgQIECAQEcF4hNWR485Pi1+4L7Us2ePjh62UfcrVHD/wUMPp3i6uXjK+Ru1005OgAABAgQIECBAoD2BcydfmM0C2WfvvdrbtSHfL1Rwj3Xb37v55qbJNOTWuwgBAgQIECBAgEBbAjGg/OeXXy7Muu6FCu4nnzI2HTHy8DRo54GqiAABAgQIECBAgMAmFXjs8aXp9nnfSddfd80mbUd+8UIF90OGDk9XTJ+aLQVpI0CAAAECBAgQILApBWJJyDPHn53uWbhgUzaj5dqFCu577r1vWjDvVp+UWojS0AgCBAgQIECAQLUF4pNUh488Kj3y0IOFgChUcN99j73Sfd9dWAgYjSBAgAABAgQIECBw0MFD06M/ergQEIJ7IW6DRhAgQIAAAQIECBRRQHDfwF0x4l7EctUmAgQIECBAgEB1BQR3wb261a/nBAgQIECAAIESCQjugnuJylVTCRAgQIAAAQLVFRDcBffqVr+eEyBAgAABAgRKJCC4C+4lKldNJUCAAAECBAhUV0BwF9yrW/16ToAAAQIECBAokYDgLriXqFw1lQABAgQIECBQXQHBXXCvbvXrOQECBAgQIECgRAKCu+BeonLVVAIECBAgQIBAdQUEd8G9utWv5wQIECBAgACBEgkI7oJ7icpVUwkQIECAAAEC1RUQ3AX36la/nhMgQIAAAQIESiQguAvuJSpXTSVAgAABAgQIVFdAcBfcq1v9ek6AAAECBAgQKJGA4C64l6hcNZUAAQIECBAgUF0BwV1wr2716zkBAgQIECBAoEQCgrvgXqJy1VQCBAgQIECAQHUFBHfBvbrVr+cECBAgQIAAgRIJCO6Ce4nKVVMJECBAgAABAtUVENwF9+pWv54TIECAAAECBEokILgL7iUqV00lQIAAAQIECFRXQHAX3Ktb/XpOgAABAgQIECiRgOAuuJeoXDWVAAECBAgQIFBdAcFdcK9u9es5AQIECBAgQKBEAoK74F6ictVUAgQIECBAgEB1BQR3wb261a/nBAgQIECAAIESCQjugnuJylVTCRAgQIAAAQLVFRDcBffqVr+eEyBAgAABAgRKJCC4C+4lKldNJUCAAAECBAhUV0BwF9yrW/16ToAAAQIECBAokYDgLriXqFw1lQABAgQIECBQXQHBXXCvbvXrOQECBAgQIECgRAKCu+BeonLVVAIECBAgQIBAdQUEd8G9utWv5wQIECBAgACBEgkI7oJ7icpVUwkQIECAAAEC1RUQ3AX36la/nhMg0GGBV199NZ1zzjlp9uzZLcfMnDkzjRw5ssPnaG/H5cuXp6lTp6bLLrss9e7du73dfZ8AAQKVExDcBffKFb0OEyDQOYE1a9akE088Me2+++5p/Pjx2cH51+Lf8fWu2AT3rlB0DgIEurOA4C64d+f61jcCBLpAYN68eWnJkiXp0ksvTZtttlnLGePrTz/9dBbmH3300WykfPXq1Wm33XbL9r377rvTSSedlO3/iU98It10002pX79+2cj9wIED06xZs9KTTz6Z8pH7PLjvuuuuadKkSS3H9O/fvwt64RQECBAov4DgLriXv4r1gACBjSaQT5EZPHhwm9NiIrhHgI9wHkE7/j19+vR0ww03ZNNe4u+xjR07NgvuzzzzTPa9GLmfMGFCmjZtWvb9Y489NtsnpuDEMc8///ybHhg2WmedmAABAgUXENwF94KXqOYRILApBfLgPmrUqJYpMRGom5qasmaNGTMmC9ZLly59Q1Bv3eZ8dD4P7rUPAnG+7bffPg0aNKglxOfhf+7cuYL7piwA1yZAoFACgrvgXqiC1BgCBIol0NaIe4yq58E6gnttyF7fy6wTJ05sGXFv/SCQB/fal1Nrz187RadYQlpDgACBxgkI7oJ746rNlQgQKKXAhua4txXcWx+zoRH32geDGHEX3EtZIhpNgECDBAR3wb1BpeYyBAiUVaCtVWW22267lqkytSPutcH9lVdeaVmVJp8qExYxxWbFihVvmOMuuJe1SrSbAIFGCAjugnsj6sw1CBDoBgK1c9ujO7XruLee1pKH/cWLF6chQ4ZkL50uWrQoTZ48OU2ZMiVtvfXWLfPk77333mz+fOvlIE2V6QZFowsECHSpgOAuuHdpQTkZAQIE2hJY38uuxAgQIECgYwKCu+DesUqxFwECBLpAQHDvAkSnIECgsgKCu+Be2eLXcQIECBAgQIBAmQQEd8G9TPWqrQQIECBAgACBygoI7oJ7ZYtfxwkQIECAAAECZRIQ3AX3MtWrthIgQIAAAQIEKisguAvulS1+HSdAgAABAgQIlElAcBfcy1Sv2kqAAAECBAgQqKyA4C64V7b4dZwAAQIECBAgUCYBwV1wL1O9aisBAgQIECBAoLICgrvgXtni13ECBAgQIECAQJkEBHfBvUz1qq0ECBAgQIAAgcoKCO6Ce2WLX8cJECBAgAABAmUSENwF9zLVq7YSIECAAAECBCorILgL7pUtfh0nQIAAAQIECJRJQHAX3MtUr9pKgAABAgQIEKisgOAuuFe2+HWcAAECBAgQIFAmAcFdcC9TvWorAQIECBAgQKCyAoK74F7Z4tdxAgQIECBAgECZBAR3wb1M9aqtBAgQIECAAIHKCgjugntli1/HCRAgQIAAAQJlEhDcBfcy1au2EiBAgAABAgQqKyC4C+6VLX4dJ0CAAAECBAiUSUBwF9zLVK/aSoAAAQIECBCorIDgLrhXtvh1nAABAgQIECBQJgHBXXAvU71qKwECBAgQIECgsgKCu+Be2eLXcQIECBAgQIBAmQQEd8G9TPWqrQQIECBAgACBygoI7oJ7ZYtfxwkQIECAAAECZRIQ3AX3MtWrthIgQIAAAQIEKisguAvulS1+HSdAgAABAgQIlElAcBfcy1Sv2kqAAAECBAgQqKyA4C64V7b4dZwAAQIECBAgUCYBwV1wL1O9aisBAgQIECBAoLICgrvgXtni13ECBAgQIECAQJkEBHfBvUz1qq0ECBAgQIAAgcoKCO6Ce2WLX8cJECBAgAABAmUSENwF9zLVq7YSIECAAAECBCorILgL7pUtfh0nQIAAAQIECJRJQHDfwN3ac+9904J5t6YePXqU6X5qKwECBAgQIECAQDcUWLduXRo+8qj0yEMPFqJ3b3v99ddfL0RLUkqHDB2erpg+NfXZaquiNEk7CBAgQIAAAQIEKiqwavXqdOb4s9M9CxcUQqBQwf3kU8amI0YengbtPLAQOBpBgAABAgQIECBQXYHHHl+abp/3nXT9ddcUAqFQwX3GlVen926+eRo5YnghcDSCAAECBAgQIECgugLz5i9If3755TTujNMKgVCo4P6Dhx5OAXTxlPMLgaMRBAgQIECAAAEC1RU4d/KF2YDyPnvvVQiEQgX3tWvXpSH7H5TmzL4x9erVqxBAGkGAAAECBAgQIFA9gebm5jR6zPFp8QP3pZ49i7FwSqGCe5TERZc0pQ/26WO6TPV+PvSYAAECBAgQIFAYgZgF8sKqVem8SRML06bCBfdf/PJXacLESWnO7FmFQdIQAgQIECBAgACBagmMHnNcmtZ0Sfr4xz5amI4XLriHzOQLpmRLQh5z9JGFgdIQAgQIECBAgACBagjcfMttKZaCnHLB5EJ1uJDBfeXK59Koo0enK6Y3pR0HDCgUmMYQIECAAAECBAh0X4Gnli1LZ46fmObeMif17btNoTpayOAeQncuvCvNX3BnmjF9qk9SLVTJaAwBAgQIECBAoHsKxCeljht/dhoxfFgaNvTQwnWysME9pGJd92efXZEmn1uclwIKdwc1iAABAgQIECBAoEsEplzclLbdtl9h1m1v3alCB/dobKwys2bNi2nihLOMvHdJSToJAQIECBAgQIBArUCMtDdNuzz17r1loVaRKV1wz0fef/bY42nsqSeb8+7njAABAgQIECBAoMsEYk77Ndden3YZtHNhR9rzzhZ+xD1vaMx5v3zGVenII0ZYbabLStWJCBAgQIAAAQLVFYjVY267fX46a9zphZzTXsoR97zRsdrMzG/cmGL0/dBDDk777zfEJ6xW92dNzwkQIECAAAECnRaIT0R9YNHidNc9381G2U864fjCrR6zoU6VZsS9tgPxIU0L7rgz3f+9RWngTp/M/vTvv0OGvmWvXubCd7qEHUCAAAECBAgQ6H4CMXf9xebmFIO/y5f/Ni194ufZnwMP2C8NP2xYoT5cqSP6pQzuecfWrl2XfrRkSTYC/9RTy9KKlStTc/NLKW6SjQABAgQIECBAoNoCPXr0SL16bZH69e2bdtxxQDbCvsfgwalnzx6lhCl1cC+luEYTIECAAAECBAgQqENAcK8DzSEECBAgQIAAAQIEGi0guDda3PUIECBAgAABAgQI1CEguNeB5hACBAgQIECAAAECjRYQ3Bst7noECBAgQIAAAQIE6hAQ3OtAcwgBAgQIECBAgACBRgsI7o0Wdz0CBAgQIECAAAECdQgI7nWgOYQAAQIECBAgQIBAowUE90aLux4BAgQIECBAgACBOgQE9zrQHEKAAAECBAgQIECg0QKCe6PFXY8AAQIECBAgQIBAHQKCex1oDiFAgAABAgQIECDQaAHBvdHirkeAAAECBAgQIECgDgHBvQ40hxAgQIAAAQIECBBotIDg3mhx1yNAgAABAgQIECBQh4DgXgeaQwgQIECAAAECBAg0WkBwb7S46xEgQIAAAQIECBCoQ0BwrwPNIQQIECBAgAABAgQaLSC4N1rc9QgQIECAAAECBAjUISC414HmEAIECBAgQIAAAQKNFhDcGy3uegQIECBAgAABAgTqEBDc60BzCAECBAgQIECAAIFGCwjujRZ3PQIECBAgQIAAAQJ1CAjudaA5hAABAgQIECBAgECjBQT3Rou7HgECBAgQIECAAIE6BAT3OtAcQoAAAQIECBAgQKDRAoJ7o8VdjwABAgQIECBAgEAdAoJ7HWgOIUCAAAECBAgQINBogcIE9x/+8Idpzz333GD/Bw4cmObOnZs+8pGPNNqoQ9d7+umnU1NTU7r//vvTmjVr0kEHHZTOPvvsNGjQoPS2t72tQ+dovdMvfvGLNHLkyPSrX/0qffvb307HHHNMXedxEAECBAgQIECAQPkFBPcuuIcR2r/whS+kePio3T760Y+m2267Le200051XWXWrFnpvPPOS+9///vT4MGD09e//vW0+eab13UuBxEgQIAAAQIECIMfkaUAACAASURBVJRboHDBvYwjy/GbgCOPPDJdcskl6atf/Wp6+9vfnr75zW+mk046qe6R8j/96U/p1FNPTVtuuWXacccd07XXXpvmzZuXPv7xj5e74rSeAAECBAgQIECgLoHSBffbb7893XTTTemnP/1pNiWld+/eaejQoen000/PRrZrp6X8/e9/Tw899FD6t3/7t/Tggw9mQPvuu28WqPfee+/0zne+M/vaSy+9lGJ0Ox4aHnvssWw6zimnnJJOOOGE9O53v7td2AjuMTI+f/78ltH1J554Io0YMSIL3Pvvv3+752i9w09+8pM0bNiwdP3116cddtghmzIT7YkHg9rtL3/5S8vXJk6cmG6++eZ0ww03ZDbf+9730t/+9rdsClJM4fntb3+bPVA8+uij6Z//+Z/ThAkT0n777Ze+//3vp5kzZ2ZG4fmlL30pnXXWWUb3O33XHECAAAECBAgQ2HgCpQvuF110UZo8efKbRD70oQ9lwXm33XbLvvf666+nW2+9NZ188skpRq9rt9r58i+88EIW5BcuXPimc37lK19Jl112WbvhPT9Hnz590oUXXphNbZk+fXpavXp1dnxnp7dE27/2ta+lu+++OwviMeoegX3VqlXZA0b8O9/y4P7jH/84/fWvf00xLz7fHnnkkeyvG3p3IMy23nrrFMe23q688sp02mmn1T0/f+OVrDMTIECAAAECBKopULjgvr7b0NaLqRFyly1bloXMGEWPUefY8hc7t91222wKyy677JJ9Peajx8j6UUcdlf7hH/4hC9rf+ta30sUXX5wOO+ywLGT/8Y9/zEatY055jPB/+tOfbrc6fve736UTTzwxG+Xedddd0wUXXJCNtL/rXe9K8bDxne98p8Mv1/73f/93Gj16dPrUpz6Vzj///PSOd7wjLViwIMWDxJ133vmG9uTB/ZZbbsl+SzB27Ni0zTbbtATu/KXfOFf0cZ999smm8sT+cb4ePXqkc889N40ZMyZ7IHjyySfT8ccfn8LtxhtvTFtssUW7fbcDAQIECBAgQIDAxhcoXXCP6S+//OUv0x133JFN+fjDH/7QMmIco9JTp05NPXv2zKZ+RChvHXRrSZ977rlspZbPf/7z2Yh27TSbGC0/+uij0+c+97k3TU9pfVti31hBJsJuhPxx48ZlU3IisMfUk/jfGNGPF1X79+/f7l2NKStx7QjXcZ7Y/u///b/Zw8YBBxzQEubj63lwjykxV111VXrPe97zhvPnwT1G3z/zmc+0fC/v+8EHH5xNi8m3eBAKtxiFj9H+D3zgA+221w4ECBAgQIAAAQIbX6Bwwb2tl1NffvnldOmll2Z/1rfFlJeYYhLz0iMsP/zww1n43Wqrrda7/29+85s0atSotHTp0g1KT5kyJZu/vqEtAnME3Rhxv+aaa7JpMr/+9a+zOfexRZiOl0rjIWPOnDlvmOayvnPG+eJ6Mdc+9v8f/+N/ZLutXbs2ezj4+c9/nv2GIKa41Ab3+Hve99rzbii4xwNPPLREmG/dv7CL4wT3jf8D6AoECBAgQIAAgY4KlCq4x0h0TGc55JBD0hlnnJG9tPm+970vewEzf2mz0cE9AnuMjse67bUBOF4OjX/HbwZii+kn+bSXtm5OPrIeQX9DW4zeH3rooYJ7R6vcfgQIECBAgACBbiBQquAeI8DTpk3L5p3/4z/+Ywt/7coqeXCP/40XRDsyVSaWcozR+nq2fNQ+5tfHi6gxpz3fXnvttWzOfbQ75qjXTlXZ0LViv8MPP7zNpsR8/vxa6+t77cFG3Ou5q44hQIAAAQIECBRPoFTBPZZdjCUR46XRGOWOlzZjRZeYihLLLsaLl3lw/8///M9sOcZY2rG9l1PjQSBe0Iy57vEyZsyj//3vf58tjxj/zke313f7XnzxxXTcccelRYsWZavdxAuqMV0mvh7tnTRpUrY0Y8wljzbGSi4b2vIQHtNY1vdiaMw/j77cc8892Yo5H/7wh1vmuMc5TZUp3g+YFhEgQIAAAQIEukqgVMF9Q59QOmDAgOyF1Fj2MA+vsTTiFVdckc0Lb711dDnIOK4jHwgVDw6x7GQE9NotpvHEdJkjjjiiZc57hPe+ffuu9/7lK+HE/PgN/QYgRtA/+9nPZv2MBwYj7l31o+A8BAgQIECAAIFiC5QquAdlvPgZI9v33XdftuxhLGMYq600NTVl0rWjzvkHMF199dXZ6HksfRgf1hSj9rvvvnu2LGJs8dJrvPAZI+TxgU0RuGM1l3hxNVaViRH0trYYCY8PXIoXUfP14OP4L3/5y9kSlXGdmFITQTteNt1QeI+VcPKXWTf0Can5CH/8JiB+8xDnbj2/v7atpsoU+wdQ6wgQIECAAAECHRUoTHDvaIPtR4AAAQIECBAgQKCKAoJ7Fe+6PhMgQIAAAQIECJROQHAv3S3TYAIECBAgQIAAgSoKCO5VvOv6TIAAAQIECBAgUDoBwb10t0yDCRAgQIAAAQIEqigguFfxruszAQIECBAgQIBA6QQE99LdMg0mQIAAAQIECBCoooDgXsW7rs8ECBAgQIAAAQKlEyh1cF+7dl360ZIl6WePPZ6eempZWrFyZWpufimtW7eudDdCgwkQIECAAAECBLpWID58s1evLVK/vn3TjjsOSLsM2jntMXhw6tmzR9deqEFnK2Vw/8Uvf5UW3HFnuv97i9LAnT6Z/enff4fUt+82actevbJPSLURIECAAAECBAhUWyAGc19sbk4rVz6Xli//bVr6xM+zPwcesF8aftiw9PGPfbRUQKUK7oE+8xs3ZiPshx5ycNp/vyGpV69epQLXWAIECBAgQIAAgU0n0NzcnB5YtDjddc93sxH4k044Phv8LcNWmuB+58K70uUzrkpHHjEiHXP0kWWw1UYCBAgQIECAAIECC9x8y23pttvnp7PGnZ6GDT20wC39f00rRXCfceXV2Sj72FNPTjsOGFB4VA0kQIAAAQIECBAoh8BTy5ala669Pht9H3fGaYVudOGD+0WXNKU1a15MEyecZe56oUtJ4wgQIECAAAEC5RSIufBN0y5PvXtvmc6bNLGwnSh0cI+R9mefXZEmn1tcwMLeWQ0jQIAAAQIECBDolMCUi5vSttv2K+zIe2GDe8xpn7/gzjRj+lQj7Z0qOTsTIECAAAECBAjUIxAj7+PGn51GDB9WyDnvhQzusXrMqKNHpyumN5nTXk/VOYYAAQIECBAgQKAugZjzfub4iWnuLXMKt9pMIYP75AumpD5bbWX1mLrKzUEECBAgQIAAAQJvRSBWm1m1enWacsHkt3KaLj+2cME9PlxpwsRJac7sWV3eWSckQIAAAQIECBAg0BGB0WOOS9OaLinUhzQVLrjHKjIf7NMnjRwxvCOm9iFAgAABAgQIECDQ5QLz5i9IL6xaVahVZgoV3NeuXZeG7H9QmjP7Rp+I2uXl54QECBAgQIAAAQIdFYhPWB095vi0+IH7Us+ePTp62Ebdr1DB/QcPPZzi6ebiKedv1E47OQECBAgQIECAAIH2BM6dfGE2C2Sfvfdqb9eGfL9QwT3WbX/v5pubJtOQW+8iBAgQIECAAAECbQnEgPKfX365MOu6Fyq4n3zK2HTEyMPToJ0HqiICBAgQIECAAAECm1TgsceXptvnfSddf901m7Qd+cULFdwPGTo8XTF9arYUpI0AAQIECBAgQIDAphSIJSHPHH92umfhgk3ZjJZrFyq477n3vmnBvFt9UmohSkMjCBAgQIAAAQLVFohPUh0+8qj0yEMPFgKiUMF99z32Svd9d2EhYDSCAAECBAgQIECAwEEHD02P/ujhQkAI7oW4DRpBgAABAgQIECBQRAHBfQN3xYh7EctVmwgQIECAAAEC1RUQ3AX36la/nhMgQIAAAQIESiQguAvuJSpXTSVAgAABAgQIVFdAcBfcq1v9ek6AAAECBAgQKJGA4C64l6hcNZUAAQIECBAgUF0BwV1wr2716zkBAgQIECBAoEQCgrvgXqJy1VQCBAgQIECAQHUFBHfBvbrVr+cECBAgQIAAgRIJCO6Ce4nKVVMJECBAgAABAtUVENwF9+pWv54TIECAAAECBEokILgL7iUqV00lQIAAAQIECFRXQHAX3Ktb/XpOgAABAgQIECiRgOAuuJeoXDWVAAECBAgQIFBdAcFdcK9u9es5AQIECBAgQKBEAoK74F6ictVUAgQIECBAgEB1BQR3wb261a/nBAgQIECAAIESCQjugnuJylVTCRAgQIAAAQLVFRDcBffqVr+eEyBAgAABAgRKJCC4C+4lKldNJUCAAAECBAhUV0BwF9yrW/16ToAAAQIECBAokYDgLriXqFw1lQABAgQIECBQXQHBXXCvbvXrOQECBAgQIECgRAKCu+BeonLVVAIECBAgQIBAdQUEd8G9utWv5wQIECBAgACBEgkI7oJ7icpVUwkQIECAAAEC1RUQ3AX36la/nhMgQIAAAQIESiQguAvuJSpXTSVAgAABAgQIVFdAcBfcq1v9ek6AAAECBAgQKJGA4C64l6hcNZUAAQIECBAgUF0BwV1wr2716zkBAgQIECBAoEQCgrvgXqJy1VQCBAgQIECAQHUFBHfBvbrVr+cECBAgQIAAgRIJCO6Ce4nKVVMJECBAgAABAtUVENwF9+pWv54TIECAAAECBEokILgL7iUqV00lQIAAAQIECFRXQHAX3Ktb/XpOgECHBV599dV0zjnnpNmzZ7ccM3PmzDRy5MgOn6O9HZcvX56mTp2aLrvsstS7d+/2dvd9AgQIVE5AcBfcK1f0OkyAQOcE1qxZk0488cS0++67p/Hjx2cH51+Lf8fXu2IT3LtC0TkIEOjOAoK74N6d61vfCBDoAoF58+alJUuWpEsvvTRtttlmLWeMrz/99NNZmH/00UezkfLVq1en3XbbLdv37rvvTieddFK2/yc+8Yl00003pX79+mUj9wMHDkyzZs1KTz75ZMpH7vPgvuuuu6ZJkya1HNO/f/8u6IVTECBAoPwCgrvgXv4q1gMCBDaaQD5FZvDgwW1Oi4ngHgE+wnkE7fj39OnT0w033JBNe4m/xzZ27NgsuD/zzDPZ92LkfsKECWnatGnZ94899thsn5iCE8c8//zzb3pg2GiddWICBAgUXEBwF9wLXqKaR4DAphTIg/uoUaNapsREoG5qasqaNWbMmCxYL1269A1BvXWb89H5PLjXPgjE+bbffvs0aNCglhCfh/+5c+cK7puyAFybAIFCCQjugnuhClJjCBAolkBbI+4xqp4H6wjutSF7fS+zTpw4sWXEvfWDQB7ca19OrT1/7RSdYglpDQECBBonILgL7o2rNlciQKCUAhua495WcG99zIZG3GsfDGLEXXAvZYloNAECDRIQ3AX3BpWayxAgUFaBtlaV2W677VqmytSOuNcG91deeaVlVZp8qkxYxBSbFStWvGGOu+Be1irRbgIEGiEguAvujagz1yBAoBsI1M5tj+7UruPeelpLHvYXL16chgwZkr10umjRojR58uQ0ZcqUtPXWW7fMk7/33nuz+fOtl4M0VaYbFI0uECDQpQKCu+DepQXlZAQIEGhLYH0vuxIjQIAAgY4JCO6Ce8cqxV4ECBDoAgHBvQsQnYIAgcoKCO6Ce2WLX8cJECBAgAABAmUSENwF9zLVq7YSIECAAAECBCorILgL7pUtfh0nQIAAAQIECJRJQHAX3MtUr9pKgAABAgQIEKisgOAuuFe2+HWcAAECBAgQIFAmAcFdcC9TvWorAQIECBAgQKCyAoK74F7Z4tdxAgQIECBAgECZBAR3wb1M9aqtBAgQIECAAIHKCgjugntli1/HCRAgQIAAAQJlEhDcBfcy1au2EiBAgAABAgQqKyC4C+6VLX4dJ0CAAAECBAiUSUBwF9zLVK/aSoAAAQIECBCorIDgLrhXtvh1nAABAgQIECBQJgHBXXAvU71qKwECBAgQIECgsgKCu+Be2eLXcQIECBAgQIBAmQQEd8G9TPWqrQQIECBAgACBygoI7oJ7ZYtfxwkQIECAAAECZRIQ3AX3MtWrthIgQIAAAQIEKisguAvulS1+HSdAgAABAgQIlElAcBfcy1Sv2kqAAAECBAgQqKyA4C64V7b4dZwAAQIECBAgUCYBwV1wL1O9aisBAgQIECBAoLICgrvgXtni13ECBAgQIECAQJkEBHfBvUz1qq0ECBAgQIAAgcoKCO6Ce2WLX8cJECBAgAABAmUSENwF9zLVq7YSIECAAAECBCorILgL7pUtfh0nQIAAAQIECJRJQHAX3MtUr9pKgAABAgQIEKisgOAuuFe2+HWcAAECBAgQIFAmAcFdcC9TvWorAQIECBAgQKCyAoK74F7Z4tdxAgQIECBAgECZBAR3wb1M9aqtBAgQIECAAIHKCgjugntli1/HCRAgQIAAAQJlEhDcBfcy1au2EiBAgAABAgQqKyC4C+6VLX4dJ0CAAAECBAiUSUBwF9zLVK/aSoAAAQIECBCorIDgLrhXtvh1nAABAgQIECBQJgHBfQN3a8+9900L5t2aevToUab7qa0ECBAgQIAAAQLdUGDdunVp+Mij0iMPPViI3r3t9ddff70QLUkpHTJ0eLpi+tTUZ6utitIk7SBAgAABAgQIEKiowKrVq9OZ489O9yxcUAiBQgX3k08Zm44YeXgatPPAQuBoBAECBAgQIECAQHUFHnt8abp93nfS9dddUwiEQgX3GVdend67+eZp5IjhhcDRCAIECBAgQIAAgeoKzJu/IP355ZfTuDNOKwRCoYL7Dx56OAXQxVPOLwSORhAgQIAAAQIECFRX4NzJF2YDyvvsvVchEAoV3NeuXZeG7H9QmjP7xtSrV69CAGkEAQIECBAgQIBA9QSam5vT6DHHp8UP3Jd69izGwimFCu5REhdd0pQ+2KeP6TLV+/nQYwIECBAgQIBAYQRiFsgLq1al8yZNLEybChfcf/HLX6UJEyelObNnFQZJQwgQIECAAAECBKolMHrMcWla0yXp4x/7aGE6XrjgHjKTL5iSLQl5zNFHFgZKQwgQIECAAAECBKohcPMtt6VYCnLKBZML1eFCBveVK59Lo44ena6Y3pR2HDCgUGAaQ4AAAQIECBAg0H0Fnlq2LJ05fmKae8uc1LfvNoXqaCGDewjdufCuNH/BnWnG9Kk+SbVQJaMxBAgQIECAAIHuKRCflDpu/NlpxPBhadjQQwvXycIG95CKdd2ffXZFmnxucV4KKNwd1CACBAgQIECAAIEuEZhycVPadtt+hVm3vXWnCh3co7GxysyaNS+miRPOMvLeJSXpJAQIECBAgAABArUCMdLeNO3y1Lv3loVaRaZ0wT0fef/ZY4+nsaeebM67nzMCBAgQIECAAIEuE4g57ddce33aZdDOhR1pzztb+BH3vKEx5/3yGVelI48YYbWZLitVJyJAgAABAgQIVFcgVo+57fb56axxpxdyTnspR9zzRsdqMzO/cWOK0fdDDzk47b/fEJ+wWt2fNT0nQIAAAQIECHRaID4R9YFFi9Nd93w3G2U/6YTjC7d6zIY6VZoR99oOxIc0LbjjznT/9xalgTt9MvvTv/8OGfqWvXqZC9/pEnYAAQIECBAgQKD7CcTc9Rebm1MM/i5f/tu09ImfZ38OPGC/NPywYYX6cKWO6JcyuOcdW7t2XfrRkiXZCPxTTy1LK1auTM3NL6W4STYCBAgQIECAAIFqC/To0SP16rVF6te3b9pxxwHZCPsegwennj17lBKm1MG9lOIaTYAAAQIECBAgQKAOAcG9DjSHECBAgAABAgQIEGi0gODeaHHXI0CAAAECBAgQIFCHgOBeB5pDCBAgQIAAAQIECDRaQHBvtLjrESBAgAABAgQIEKhDQHCvA80hBAgQIECAAAECBBotILg3Wtz1CBAgQIAAAQIECNQhILjXgeYQAgQIECBAgAABAo0WENwbLe56BAgQIECAAAECBOoQENzrQHMIAQIECBAgQIAAgUYLCO6NFnc9AgQIECBAgAABAnUICO51oDmEAAECBAgQIECAQKMFBPdGi7seAQIECBAgQIAAgToEBPc60BxCgAABAgQIECBAoNECgnujxV2PAAECBAgQIECAQB0CgnsdaA4hQIAAAQIECBAg0GgBwb3R4q5HgAABAgQIECBAoA4Bwb0ONIcQIECAAAECBAgQaLSA4N5ocdcjQIAAAQIECBAgUIeA4F4HmkMIECBAgAABAgQINFpAcG+0uOsRIECAAAECBAgQqENAcK8DzSEECBAgQIAAAQIEGi0guDda3PUIECBAgAABAgQI1CEguNeB5hACBAgQIECAAAECjRYQ3Bst7noECBAgQIAAAQIE6hAQ3OtAcwgBAgQIECBAgACBRgsI7o0Wdz0CBAgQIECAAAECdQgI7nWgOYQAAQIECBAgQIBAowUKH9xfe+219P3vfz/9+7//e3r00UfT7373u/ShD30o7b777umwww5Ln/vc59L73//+RruV9nq/+c1v0qhRo9LSpUvb7cOBBx6Ybr755vSBD3yg3X07usMf/vCHdMwxx6TPfOYz6bzzzuvoYdl+L7/8cvrWt76V5s6dmx566KHsax/5yEfS4MGDszqI9qqF/5807t0XvvCF9O1vfzsz3xjbD3/4w7TnnnumRx55JLuntVtea//0T/+Uvva1r6V3v/vdG6MJzkmAAAECBCojUOjgvnLlyvTVr341zZs3b4M35KSTThIKOlGuZQ3u//Vf/5W+/OUvp+9973sb7O2UKVM6/TDQCbrS7Sq4l+6WaTABAgQIEGhToLDB/Y9//GMaO3ZsNsL6L//yL+mss85KH/3oR9M73/nO9Ne//jX9/ve/z0biI4hOmjTJaN5bKPQ84K1v1PQtnHa9h9Yz4v63v/0tXXjhhenaa69Nl1xySfYbgy233DI7/1/+8pf09NNPZ4E+9hs3blxXN9n52hBoa8QdHAECBAgQINC1AoUN7gsWLEiHH354FsQuvvjiDgXz119/PT388MPpyiuvTA8++GDq0aNHGjp0aDr99NPTTjvtlN72tre1hL0Yyf/73/+evvSlL6VvfOMbaeHChdn34t8TJkzIAmE8NMQ0g3g42HfffbN2xK/98y0PLXGtF198Mf3bv/1bdt1//ud/TuPHj08HH3xwevvb357tvnbt2nTjjTem2267LT3++OPpT3/6UzblZ/jw4em0005L22+//ZvOG32Jh5QZM2ake+65J51yyinpiiuuSJtttll66aWX0qxZs7L2PfbYY9mUkfj+CSec0CGr2jJqK7iHw+23355NVYrpKdHmmH4R96V3797ZaX71q19lbrvuumu67LLL0uabb95y+jjmi1/8Yma32267pSOPPPJN03QGDhyYTX+JPqxvizbE/QrDa6655g3n39CPQ/Rp+vTpbzpv/uAQ3vn0jfz8XVUP999/f/rtb3+bvvnNb2bTu6Ieoqb222+/7GFz5syZWZ2EX7jFQ2mtWXjfdNNN6ac//Wlas2ZNtt/66rj2IWj06NFZ3c+ZMyd9+MMfzurshRdeeMM0lvZ+25I/uHW0VvO6aX0P8t+CvfLKK+udFhU1fdddd6Xrrrsuc2jv56D1z1dMk/vXf/3XNGzYsJafr679z6KzESBAgACBYgoUMrhHcDj77LPTfffdl02T+fjHP96uXoT2W2+9NZ188slZKK7dIhhEiNp7773fENwjQK1vi3D+/PPPZ/Ppa7eYwxtBOQ/ZeXDfeuuts/1rt/e9733phhtuyIJqbHk4XN81N3TeffbZJ/2f//N/WvqTB6L4bUT8PX/YqL3uV77ylSw8d2Y+8YaCe8wpj4AUAav1Fu8XRF+22mqr7FvRlgiPF110UfYgEg9J8VuR448/Pgtm0aYVK1asd359e8H91VdfTWeeeWYK7wimn/zkJ9uth3qCe1fVw/oaFwZRJz/+8Y/f9O0I3LlZfDMMJ0+e/Kb94hzz58/PHoBiy4P7qlWrUoTkCOax5Z7//d//XVdw72it1hPcI7THw2f8fLfeIpDHA2L8Zi22/OdrwIABadmyZW/YPSzj4WSvvfZqtxbsQIAAAQIEuotAIYN7jF5HCIyRxpgeESG4ve2ZZ57JptS8613vyqZT7LLLLtmI+uLFi7PwGQEzRtDj//DzYHLLLbdko9QxJWebbbZJzz77bBagIoQecsghWXgaNGhQNgUjRr3POeec7HuHHnroG4LFUUcdlQXLCEwxwv6Tn/wknXHGGWnbbbfNRtm32GKL9TY/2hcjsjF3e+LEiVmorQ0sn/rUp7KR6gjwPXv2zL6XTxuJvsT3IkDHaG2E+XhQ+PrXv56NkH/6059uj6zl+xsK7jGiHyPd4XDcccdl01PC7jvf+U4699xzM5P4jUFseSCL3zrEQ1JcP9zDNALxBz/4wTeEzc6+nJqP3MdDWfwmIx7C4rco/fv3T7169Wr5bUreqXqCe1fVQ+19i3qI88YDVfwGKNzGjBmTWT755JPZg017dRIPpRFcozaj31ErtcE9RuZrz5sbdGQaS4T9uLf/8A//kAXq/EGsdfG0V6vrm2a1vmlR8dumGCnfY489svqN3w7Eg1leU//rf/2vrIajpvP213rGVLn4mQ63cDz//PPfdO87XPh2JECAAAECJRMoZHBf33SG9lwfeOCBbGrNHXfckU1rqd3yAHrvvfdmK1/kwT32ab3aRYTMGPWL0fsIFfn261//Oh1xxBHZlId8hY62glGcJx46IkT/4z/+Y0u4jaD+3e9+NxtJX716dTbNJbYIwRGSa4N7hNXWI4rPPfdcdv3Pf/7z2f759J84Ls539NFHZyus5Odqzy2+v77gHgH51FNPzQJmjJbHA1G+xehuTD+KB6qpU6e2PFTEA1f8JiBGeg844IDsISemfOQjqLVhs7PBPcLrE088ka666qrsvDGFJN9iBD7CbDxELTgcBwAAGG1JREFU5O2sJ7hvrHrI71k8cMS0mHyLPsXc/RiFr129J0LyL3/5y6yWo17i5yEfqY/7mpvnPyfxG6L1Bdj2gnv8Rinu8Xve855sClL+cBXtiwexztRqR4N7/FzEPWz9m7T8gTSm0OTTpjbU/rw2o91Wq+nIT7h9CBAgQKC7CBQyuNcz4r6hoFYbhPNl8doK7hs6Tz4/OOaudyS4x/z0GB3NA02E6hiVj6ke69tqV0TpyBJ7bS3n2NnVVdYX3PNQGPO1N7Stb0WffL57BM/rr78+xW8jah8u6nk5tfX1I1Q2Nzen5cuXZ4E23of43//7f2cPGDH3/h3veEcWhDs7x319wb0r6qGtPse0mLjfeXCP6UmXXnpp9md9W615e5Zt1VHMf49zxVb7G5H8AbAranV97Wvd39o+tq7DDbW/rZ/f7vIfZv0gQIAAAQLrEyhkcK9njnvRgnv+G4BY7SRGRGPUP369HyOmxx57bOrbt282Yh0vmbZe11xw79wPawTEsI1Alwfgsgb3eBEzpj/FVK2YbrXDDjtkdRIj0vlvUfJR5nqDe21oj98KRS3Wbl1Vq4J75+rY3gQIECBAoD2BQgb3aHS+qkzMQW+9Usn6OhVBOaZn/Md//Ef67Gc/+6YgEqGnI1NlumKENUJWtDlWgon5zfFSYYw0xih8/Lt2HvH6wk1bwT2fdhEvveYjpu3d5Pa+39ZUmX79+mVtj1Hs9rZ8qkzMOe/Tp0/2Im/tS8FxfHvTO9q7xvq+H97xYU4/+9nPWoJ7TLeIe3733Xdnq93kW1urysQ+radedEU9dGbEPa43bdq0N0yxinatb5S5nuCe/+YnwnvMJY8XP1tv9dTq+qZ1ra99Mbofc+nj/sT7I/nWmakyRtzr+SlxDAECBAh0B4HCBvc8BMZc2A2t4x5BOJbdi3nDEUhiv/wlyXihrb2XU7sqqMV8+FiuL1ZyqX15c8SIEdmLsjHvuqmpKZuSEC+rDhkyJKudWH88wm3M+Y3R1fyTRNsK7nnAibnz8UJizHWPl1+jr7GKS4zYxr/zF2g7UqRtvZwaL5jGdcI2X/4x5pdHGyP8xfKTseXuMS87pgPFfOl46TfCW/T5f/7P/5ntl0+Dir/HaG881LS3xTkuuOCC7BNSY85/PBTEy7oxRzzaEnPeY3pQ3IN8Pn5MoYkHuWhDvFQc9yZq5eqrr84eJuJdgNbLQXZVPbSe792Z4B6BNkwjVEcb44EpnOPnILziReV6R9xjbni8oxEPOLWrt7T270yt5s7xMxjTyGpXM2rr5dR4eTweUOLl4vZeTm3tKbi39xPj+wQIECDQXQUKG9wDPFbSiNU42vq0zHzOb6xt3tnlILsqqK2vOFovbfef//mfKYJ86yUmYyWamK8dK3t0JLjHtfKpDutbDjK+39mPuK9nOci4Tj6XPl+KMwJyvIyaP5isb333/MEjRnXzrb3lIDsy3z5edo0pHvla8LUPfrX3J1ZwiXnkI0eOLGRwj4e5WCc/HoxqtxgZj4eVPffcs+7gnj8Qbug/ZnnddKZWYxnUeKhbtGhRy2nbWse9nuUgBffu+n8/+kWAAAECnRUodHCPzkTIiukOMXUmRpNjhDXCWYy+RhCOEcj8w2s6+wFMXRXcY0WPeFk0/1CdWN0kpmlESMy3aNuSJUuypRVjvwj28cFEsdLIiSeemK1209HgnrvEkpAxQhvTFGIedKymE0tKxqoy73//+ztcC219ANNrr72WTfmJUfMIfjFqG9eJFXZiWb8Y/c4DeszNjpcaY8m+fIu1tqN/MT0i5qHHi6pxD2MVnQiK8fcDDzww+3etV23jwy7WgI92xNr+YR0PQNHncIs6iKlDtR9iFMfHUpRxb2Lt81juM5YPjFH5uDfr+wCmrqqHtzLiHm2IFYyiTqKvebvjJd8YCa9tY2enynQ0uHemVqM9scRjvEwb7Y3fysRDaIzsR620fn8j9u/sBzAJ7h3+UbYjAQIECHRzgcIH9yL7t7fcXpHbrm0ECBAgQIAAAQLlEhDc38L9EtzfAp5DCRAgQIAAAQIEOiUguHeK6407C+5vAc+hBAgQIECAAAECnRIQ3DvFJbi/BS6HEiBAgAABAgQIvAUBwf0t4DmUAAECBAgQIECAQKMEBPdGSbsOAQIECBAgQIAAgbcgILi/BTyHEiBAgAABAgQIEGiUgODeKGnXIUCAAAECBAgQIPAWBEod3NeuXZd+tGRJ+tljj6ennlqWVqxcmZqbX0rr1q17CyQOJUCAAAECBAgQ6A4CPXr0SL16bZH69e2bdtxxQNpl0M5pj8GDU8+ePUrZvVIG91/88ldpwR13pvu/tygN3OmT2Z/+/XdIfftuk7bs1SvFTbIRIECAAAECBAhUWyAGc19sbk4rVz6Xli//bVr6xM+zPwcesF8aftiw9PGPfbRUQKUK7oE+8xs3ZiPshx5ycNp/vyGpV69epQLXWAIECBAgQIAAgU0n0NzcnB5YtDjddc93sxH4k044Phv8LcNWmuB+58K70uUzrkpHHjEiHXP0kWWw1UYCBAgQIECAAIECC9x8y23pttvnp7PGnZ6GDT20wC39f00rRXCfceXV2Sj72FNPTjsOGFB4VA0kQIAAAQIECBAoh8BTy5ala669Pht9H3fGaYVudOGD+0WXNKU1a15MEyecZe56oUtJ4wgQIECAAAEC5RSIufBN0y5PvXtvmc6bNLGwnSh0cI+R9mefXZEmn1tcwMLeWQ0jQIAAAQIECBDolMCUi5vSttv2K+zIe2GDe8xpn7/gzjRj+lQj7Z0qOTsTIECAAAECBAjUIxAj7+PGn51GDB9WyDnvhQzusXrMqKNHpyumN5nTXk/VOYYAAQIECBAgQKAugZjzfub4iWnuLXMKt9pMIYP75AumpD5bbWX1mLrKzUEECBAgQIAAAQJvRSBWm1m1enWacsHkt3KaLj+2cME9PlxpwsRJac7sWV3eWSckQIAAAQIECBAg0BGB0WOOS9OaLinUhzQVLrjHKjIf7NMnjRwxvCOm9iFAgAABAgQIECDQ5QLz5i9IL6xaVahVZgoV3NeuXZeG7H9QmjP7Rp+I2uXl54QECBAgQIAAAQIdFYhPWB095vi0+IH7Us+ePTp62Ebdr1DB/QcPPZzi6ebiKedv1E47OQECBAgQIECAAIH2BM6dfGE2C2Sfvfdqb9eGfL9QwT3WbX/v5pubJtOQW+8iBAgQIECAAAECbQnEgPKfX365MOu6Fyq4n3zK2HTEyMPToJ0HqiICBAgQIECAAAECm1TgsceXptvnfSddf901m7Qd+cULFdwPGTo8XTF9arYUpI0AAQIECBAgQIDAphSIJSHPHH92umfhgk3ZjJZrFyq477n3vmnBvFt9UmohSkMjCBAgQIAAAQLVFohPUh0+8qj0yEMPFgKiUMF99z32Svd9d2EhYDSCAAECBAgQIECAwEEHD02P/ujhQkAI7oW4DRpBgAABAgQIECBQRAHBfQN3xYh7EctVmwgQIECAAAEC1RUQ3AX36la/nhMgQIAAAQIESiQguAvuJSpXTSVAgAABAgQIVFdAcBfcq1v9ek6AAAECBAgQKJGA4C64l6hcNZUAAQIECBAgUF0BwV1wr2716zkBAgQIECBAoEQCgrvgXqJy1VQCBAgQIECAQHUFBHfBvbrVr+cECBAgQIAAgRIJCO6Ce4nKVVMJECBAgAABAtUVENwF9+pWv54TIECAAAECBEokILgL7iUqV00lQIAAAQIECFRXQHAX3Ktb/XpOgAABAgQIECiRgOAuuJeoXDWVAAECBAgQIFBdAcFdcK9u9es5AQIECBAgQKBEAoK74F6ictVUAgQIECBAgEB1BQR3wb261a/nBAgQIECAAIESCQjugnuJylVTCRAgQIAAAQLVFRDcBffqVr+eEyBAgAABAgRKJCC4C+4lKldNJUCAAAECBAhUV0BwF9yrW/16ToAAAQIECBAokYDgLriXqFw1lQABAgQIECBQXQHBXXCvbvXrOQECBAgQIECgRAKCu+BeonLVVAIECBAgQIBAdQUEd8G9utWv5wQIECBAgACBEgkI7oJ7icpVUwkQIECAAAEC1RUQ3AX36la/nhMgQIAAAQIESiQguAvuJSpXTSVAgAABAgQIVFdAcBfcq1v9ek6AAAECBAgQKJGA4C64l6hcNZUAAQIECBAgUF0BwV1wr2716zkBAgQIECBAoEQCgrvgXqJy1VQCBAgQIECAQHUFBHfBvbrVr+cECBAgQIAAgRIJCO6Ce4nKVVMJECBAgAABAtUVENwF9+pWv54TIECAAAECBEokILgL7iUqV00lQIAAAQIECFRXQHAX3Ktb/XpOgECHBV599dV0zjnnpNmzZ7ccM3PmzDRy5MgOn6O9HZcvX56mTp2aLrvsstS7d+/2dvd9AgQIVE5AcBfcK1f0OkyAQOcE1qxZk0488cS0++67p/Hjx2cH51+Lf8fXu2IT3LtC0TkIEOjOAoK74N6d61vfCBDoAoF58+alJUuWpEsvvTRtttlmLWeMrz/99NNZmH/00UezkfLVq1en3XbbLdv37rvvTieddFK2/yc+8Yl00003pX79+mUj9wMHDkyzZs1KTz75ZMpH7vPgvuuuu6ZJkya1HNO/f/8u6IVTECBAoPwCgrvgXv4q1gMCBDaaQD5FZvDgwW1Oi4ngHgE+wnkE7fj39OnT0w033JBNe4m/xzZ27NgsuD/zzDPZ92LkfsKECWnatGnZ94899thsn5iCE8c8//zzb3pg2GiddWICBAgUXEBwF9wLXqKaR4DAphTIg/uoUaNapsREoG5qasqaNWbMmCxYL1269A1BvXWb89H5PLjXPgjE+bbffvs0aNCglhCfh/+5c+cK7puyAFybAIFCCQjugnuhClJjCBAolkBbI+4xqp4H6wjutSF7fS+zTpw4sWXEvfWDQB7ca19OrT1/7RSdYglpDQECBBonILgL7o2rNlciQKCUAhua495WcG99zIZG3GsfDGLEXXAvZYloNAECDRIQ3AX3BpWayxAgUFaBtlaV2W677VqmytSOuNcG91deeaVlVZp8qkxYxBSbFStWvGGOu+Be1irRbgIEGiEguAvujagz1yBAoBsI1M5tj+7UruPeelpLHvYXL16chgwZkr10umjRojR58uQ0ZcqUtPXWW7fMk7/33nuz+fOtl4M0VaYbFI0uECDQpQKCu+DepQXlZAQIEGhLYH0vuxIjQIAAgY4JCO6Ce8cqxV4ECBDoAgHBvQsQnYIAgcoKCO6Ce2WLX8cJECBAgAABAmUSENwF9zLVq7YSIECAAAECBCorILgL7pUtfh0nQIAAAQIECJRJQHAX3MtUr9pKgAABAgQIEKisgOAuuFe2+HWcAAECBAgQIFAmAcFdcC9TvWorAQIECBAgQKCyAoK74F7Z4tdxAgQIECBAgECZBAR3wb1M9aqtBAgQIECAAIHKCgjugntli1/HCRAgQIAAAQJlEhDcBfcy1au2EiBAgAABAgQqKyC4C+6VLX4dJ0CAAAECBAiUSUBwF9zLVK/aSoAAAQIECBCorIDgLrhXtvh1nAABAgQIECBQJgHBXXAvU71qKwECBAgQIECgsgKCu+Be2eLXcQIECBAgQIBAmQQEd8G9TPWqrQQIECBAgACBygoI7oJ7ZYtfxwkQIECAAAECZRIQ3AX3MtWrthIgQIAAAQIEKisguAvulS1+HSdAgAABAgQIlElAcBfcy1Sv2kqAAAECBAgQqKyA4C64V7b4dZwAAQIECBAgUCYBwV1wL1O9aisBAgQIECBAoLICgrvgXtni13ECBAgQIECAQJkEBHfBvUz1qq0ECBAgQIAAgcoKCO6Ce2WLX8cJECBAgAABAmUSENwF9zLVq7YSIECAAAECBCorILgL7pUtfh0nQIAAAQIECJRJQHAX3MtUr9pKgAABAgQIEKisgOAuuFe2+HWcAAECBAgQIFAmAcFdcC9TvWorAQIECBAgQKCyAoK74F7Z4tdxAgQIECBAgECZBAR3wb1M9aqtBAgQIECAAIHKCgjugntli1/HCRAgQIAAAQJlEhDcBfcy1au2EiBAgAABAgQqKyC4C+6VLX4dJ0CAAAECBAiUSUBwF9zLVK/aSoAAAQIECBCorIDgLrhXtvh1nAABAgQIECBQJgHBfQN3a8+9900L5t2aevToUab7qa0ECBAgQIAAAQLdUGDdunVp+Mij0iMPPViI3r3t9ddff70QLUkpHTJ0eLpi+tTUZ6utitIk7SBAgAABAgQIEKiowKrVq9OZ489O9yxcUAiBQgX3k08Zm44YeXgatPPAQuBoBAECBAgQIECAQHUFHnt8abp93nfS9dddUwiEQgX3GVdend67+eZp5IjhhcDRCAIECBAgQIAAgeoKzJu/IP355ZfTuDNOKwRCoYL7Dx56OAXQxVPOLwSORhAgQIAAAQIECFRX4NzJF2YDyvvsvVchEAoV3NeuXZeG7H9QmjP7xtSrV69CAGkEAQIECBAgQIBA9QSam5vT6DHHp8UP3Jd69izGwimFCu5REhdd0pQ+2KeP6TLV+/nQYwIECBAgQIBAYQRiFsgLq1al8yZNLEybChfcf/HLX6UJEyelObNnFQZJQwgQIECAAAECBKolMHrMcWla0yXp4x/7aGE6XrjgHjKTL5iSLQl5zNFHFgZKQwgQIECAAAECBKohcPMtt6VYCnLKBZML1eFCBveVK59Lo44ena6Y3pR2HDCgUGAaQ4AAAQIECBAg0H0Fnlq2LJ05fmKae8uc1LfvNoXqaCGDewjdufCuNH/BnWnG9Kk+SbVQJaMxBAgQIECAAIHuKRCflDpu/NlpxPBhadjQQwvXycIG95CKdd2ffXZFmnxucV4KKNwd1CACBAgQIECAAIEuEZhycVPadtt+hVm3vXWnCh3co7GxysyaNS+miRPOMvLeJSXpJAQIECBAgAABArUCMdLeNO3y1Lv3loVaRaZ0wT0fef/ZY4+nsaeebM67nzMCBAgQIECAAIEuE4g57ddce33aZdDOhR1pzztb+BH3vKEx5/3yGVelI48YYbWZLitVJyJAgAABAgQIVFcgVo+57fb56axxpxdyTnspR9zzRsdqMzO/cWOK0fdDDzk47b/fEJ+wWt2fNT0nQIAAAQIECHRaID4R9f9r7+51ogrDKIx+zdA61tiBdGoNtYFWvAaNd6fGaKEQS6nFjp8OascWGzMnMbEx0V3scHSRTLnzMguKJycTODr+ON68fTc9ZX/x/Nmt++sxv3tTs3ni/usbWP+TppevXo/3H47Ho4cPptf29taEfne59Fn4v/4VNiBAgAABAgQI/HsC68+uf12txvrh78XF5fh8+mV6Hew/Hk8Pn9yqf670J/qzDPefb+zm5vv4dHIyPYE/OzsfV9fXY7X6NtY/JF8ECBAgQIAAAQL/t8BisRjL5Z1xb3Nz7Ozcn56w7+3ujo2NxSxhZh3usxT3TRMgQIAAAQIECBAIBIR7gGZCgAABAgQIECBAoC0g3Nvi7hEgQIAAAQIECBAIBIR7gGZCgAABAgQIECBAoC0g3Nvi7hEgQIAAAQIECBAIBIR7gGZCgAABAgQIECBAoC0g3Nvi7hEgQIAAAQIECBAIBIR7gGZCgAABAgQIECBAoC0g3Nvi7hEgQIAAAQIECBAIBIR7gGZCgAABAgQIECBAoC0g3Nvi7hEgQIAAAQIECBAIBIR7gGZCgAABAgQIECBAoC0g3Nvi7hEgQIAAAQIECBAIBIR7gGZCgAABAgQIECBAoC0g3Nvi7hEgQIAAAQIECBAIBIR7gGZCgAABAgQIECBAoC0g3Nvi7hEgQIAAAQIECBAIBIR7gGZCgAABAgQIECBAoC0g3Nvi7hEgQIAAAQIECBAIBIR7gGZCgAABAgQIECBAoC0g3Nvi7hEgQIAAAQIECBAIBIR7gGZCgAABAgQIECBAoC0g3Nvi7hEgQIAAAQIECBAIBIR7gGZCgAABAgQIECBAoC0g3Nvi7hEgQIAAAQIECBAIBIR7gGZCgAABAgQIECBAoC0g3Nvi7hEgQIAAAQIECBAIBIR7gGZCgAABAgQIECBAoC0g3Nvi7hEgQIAAAQIECBAIBIR7gGZCgAABAgQIECBAoC0g3Nvi7hEgQIAAAQIECBAIBIR7gGZCgAABAgQIECBAoC0g3Nvi7hEgQIAAAQIECBAIBIR7gGZCgAABAgQIECBAoC0g3Nvi7hEgQIAAAQIECBAIBIR7gGZCgAABAgQIECBAoC0g3Nvi7hEgQIAAAQIECBAIBIR7gGZCgAABAgQIECBAoC0g3Nvi7hEgQIAAAQIECBAIBH4AnAwlM2cROm4AAAAASUVORK5CYII=;" vertex="1" parent="rPotdWslKDCbEyl9UmMc-77">
          <mxGeometry x="424.87786061588326" y="16.134797727272723" width="366.2260227272727" height="546.8888386363636" as="geometry" />
        </mxCell>
        <mxCell id="DNiDl7zgtREd2JpVn6Px-4" value="&lt;b&gt;&lt;font style=&quot;font-size: 14px;&quot;&gt;2 (업로드 후)&lt;/font&gt;&lt;/b&gt;" style="text;html=1;strokeColor=default;fillColor=none;align=center;verticalAlign=middle;whiteSpace=wrap;rounded=0;" vertex="1" parent="rPotdWslKDCbEyl9UmMc-77">
          <mxGeometry x="411.84479740680706" width="104.26450567260939" height="39.09886363636363" as="geometry" />
        </mxCell>
      </root>
    </mxGraphModel>
  </diagram>
</mxfile>
